<svg width="1223" height="758" viewBox="0 0 1223 758" fill="none" xmlns="http://www.w3.org/2000/svg">
                <g clip-path="url(#clip0)">
                    <path
                        d="M834.654 49.7553C834.776 49.5111 834.898 49.389 835.143 49.1448C835.633 48.5342 835.266 47.8015 834.776 47.5572C835.021 47.5572 835.266 47.4351 835.388 47.0688C837.591 39.1312 830.859 30.583 824.495 26.6753C822.169 25.2099 811.276 20.4473 806.992 22.4012C803.198 10.9222 792.794 2.12983 780.799 0.298081C779.82 0.175965 779.453 0.908665 779.576 1.64136C778.964 2.00771 778.474 2.49618 777.862 2.98465C771.62 -0.190385 767.336 10.5559 764.766 14.3415C759.258 22.4012 752.036 28.8734 747.141 37.4216C745.917 39.4975 744.693 41.6956 743.591 43.8937C743.102 44.8707 741.878 46.3361 742.122 47.5572C742.612 49.7553 746.529 49.8775 748.242 50.2438C748.365 50.2438 748.609 50.3659 748.977 50.3659C749.099 50.488 749.221 50.6102 749.221 50.7323C749.589 51.0986 750.078 51.0986 750.323 50.7323C759.503 52.8083 768.927 54.64 776.026 61.2343C776.271 61.4785 776.638 61.4785 776.883 61.3564C789.857 65.3863 799.526 75.522 800.383 89.4433C800.383 90.0538 801.117 90.4202 801.729 90.2981C805.891 88.7106 808.583 85.2913 811.643 82.1163C815.805 77.7201 820.089 73.3239 824.372 68.9277C828.289 64.7757 839.917 56.3496 834.654 49.7553ZM817.029 73.9344C817.273 72.8354 817.763 71.7363 818.375 70.7594C818.497 71.2479 818.62 71.7363 818.742 72.2248C818.13 72.8354 817.641 73.446 817.029 73.9344ZM796.466 72.3469C796.589 72.1027 796.711 71.7363 796.833 71.4921C797.568 72.9575 798.18 74.4229 798.669 75.8883C798.057 74.6671 797.323 73.446 796.466 72.3469ZM800.628 77.1095C800.138 75.3998 799.404 73.6902 798.669 71.9806C799.771 73.5681 800.75 75.1556 801.484 76.8652C801.24 76.8652 800.872 76.8652 800.628 77.1095ZM796.221 69.1719C796.221 69.1719 796.099 69.294 796.099 69.4161C795.977 69.5382 795.977 69.6604 795.854 69.9046C795.732 69.4161 795.487 68.9277 795.365 68.5613C795.487 68.6834 795.609 68.8055 795.732 68.9277C795.854 68.9277 796.099 69.0498 796.221 69.1719ZM793.406 68.195C793.406 68.0728 793.529 67.9507 793.529 67.8286C793.896 68.4392 794.141 69.0498 794.385 69.7825C794.018 69.294 793.651 68.9277 793.161 68.5613C793.284 68.4392 793.284 68.3171 793.406 68.195ZM815.56 74.3008C815.56 74.4229 815.682 74.545 815.682 74.545C815.805 74.7893 815.927 74.9114 816.172 74.9114C815.438 75.6441 814.826 76.3768 814.091 76.9874C814.581 76.1325 815.07 75.1556 815.56 74.3008ZM820.456 70.5152C820.945 68.6834 821.924 66.3632 822.414 67.5844C822.536 67.8286 822.659 67.9507 822.904 67.9507L820.456 70.5152ZM822.536 65.3863C823.271 64.4093 824.005 63.4324 824.74 62.4555C824.25 63.6766 823.638 64.7757 823.026 65.9969C822.904 65.8747 822.781 65.7526 822.536 65.3863ZM825.964 61.4785C825.841 61.3564 825.719 61.3564 825.719 61.3564C826.331 60.6237 826.943 59.7689 827.555 59.0362C827.188 60.0131 826.943 60.9901 826.576 61.967C826.453 61.8449 826.208 61.7228 825.964 61.4785ZM828.779 58.5477C828.656 58.3035 828.411 58.1814 828.167 58.1814C828.779 57.4487 829.268 56.716 829.88 55.9833C829.513 56.9602 829.268 57.9372 829.023 58.9141C828.901 58.792 828.779 58.6699 828.779 58.5477ZM829.635 60.9901C830.003 59.7689 830.492 58.6699 830.859 57.4487C830.982 58.0593 831.227 58.5477 831.349 59.1583C830.859 59.7689 830.247 60.3795 829.635 60.9901ZM833.797 51.7092C833.43 51.7092 832.94 51.9534 832.818 52.4419C832.573 53.6631 832.328 54.8842 832.083 56.1054C831.961 55.6169 831.716 55.1285 831.594 54.7621C831.471 54.5179 831.349 54.3958 831.104 54.2737C831.839 53.2967 832.695 52.1977 833.43 51.2207C833.552 51.465 833.674 51.5871 833.797 51.7092ZM751.057 36.3225C751.302 36.9331 751.547 37.5437 751.792 38.1543C751.914 38.6427 752.648 38.7648 752.648 38.1543C752.648 36.6889 752.893 35.3456 753.016 33.8802C753.138 34.3686 753.26 34.8571 753.383 35.3456C753.383 35.9562 754.362 35.9562 754.484 35.3456C754.729 34.0023 755.096 32.659 755.341 31.4378C755.586 32.0484 755.831 32.7811 755.953 33.3917C754.24 35.9562 752.526 38.3985 750.813 40.9629C750.813 39.3754 750.935 37.91 751.057 36.3225ZM749.833 42.6726C749.589 42.9168 749.466 43.2832 749.344 43.5274C749.221 42.6726 749.221 41.9399 749.221 41.0851C749.344 41.5735 749.589 42.1841 749.833 42.6726ZM771.008 10.9222C771.008 11.0443 771.008 11.0443 771.008 10.9222C770.641 11.6549 770.151 12.2655 769.784 12.8761C769.906 12.0213 770.151 11.0444 770.273 10.1895C770.518 10.5559 770.763 10.8001 771.008 10.9222ZM773.945 7.13662C773.578 7.62508 773.211 7.99143 772.844 8.4799C773.211 7.86932 773.456 7.38085 773.945 7.13662ZM756.32 30.583C756.076 30.0946 755.953 29.484 755.708 28.9955C755.586 28.7513 755.464 28.6292 755.219 28.6292C755.708 28.0186 756.198 27.2859 756.81 26.6753C756.688 27.8965 756.565 29.2397 756.32 30.583ZM757.789 25.5762C758.279 24.9657 758.768 24.3551 759.38 23.7445C759.258 24.7214 759.258 25.6984 759.135 26.6753C758.891 26.3089 758.523 26.0647 758.156 25.6984C758.034 25.6984 757.911 25.5762 757.789 25.5762ZM758.034 28.1407C758.279 28.507 758.523 28.8734 758.768 29.2397C758.401 29.8503 758.034 30.3388 757.544 30.9494C757.789 30.0946 757.911 29.1176 758.034 28.1407ZM765.133 20.2031C764.888 20.5695 764.643 20.9358 764.398 21.4243C763.052 23.3781 761.828 25.2099 760.482 27.1638C760.604 26.1868 760.604 25.2099 760.727 24.233C761.094 24.5993 761.706 24.233 761.828 23.8666C761.951 23.0118 762.195 22.2791 762.318 21.4243C762.44 21.6685 762.563 22.0349 762.685 22.2791C762.93 22.8897 763.664 22.7676 763.786 22.157C764.031 21.18 764.276 20.2031 764.398 19.2262C764.398 19.3483 764.521 19.5925 764.521 19.7146C764.521 19.9589 764.888 20.2031 765.133 20.2031ZM765.867 19.1041C765.867 18.2492 765.867 17.3944 765.867 16.5396C765.99 16.6617 766.112 16.7838 766.234 16.906C766.602 17.2723 766.969 17.0281 767.214 16.7838C766.846 17.5165 766.357 18.3714 765.867 19.1041ZM767.458 16.5396V16.4175C767.703 15.4406 767.948 14.5857 768.193 13.6088C768.193 13.6088 768.193 13.7309 768.315 13.7309C768.438 14.0973 768.682 14.2194 768.927 14.2194C768.438 15.0742 767.948 15.8069 767.458 16.5396ZM776.516 3.96158C776.638 3.96158 776.76 3.96158 776.883 3.96158C776.271 4.45005 775.781 5.06063 775.292 5.67122C775.414 5.30487 775.536 5.06063 775.659 4.69428C776.148 4.8164 776.393 4.32793 776.516 3.96158ZM773.456 4.93852C773.456 5.18275 773.456 5.30487 773.456 5.5491C773.089 5.5491 772.844 5.67122 772.477 5.67122C772.721 5.42698 773.089 5.18275 773.456 4.93852ZM771.742 6.64815C771.742 7.50297 771.62 8.23567 771.375 9.09048C771.253 8.84625 771.008 8.72413 770.518 8.35778C770.885 7.7472 771.253 7.13662 771.742 6.64815ZM754.484 29.6061C754.24 30.583 754.117 31.56 753.872 32.5369C753.75 32.1705 753.628 31.8042 753.383 31.4378C753.383 31.3157 753.26 31.3157 753.138 31.1936C753.628 30.7051 754.117 30.0946 754.484 29.6061ZM751.18 34.1244C751.547 33.6359 751.914 33.1475 752.159 32.659C752.036 33.6359 751.914 34.4908 751.792 35.3456C751.669 34.9792 751.424 34.6129 751.18 34.1244ZM747.63 40.1081C747.63 39.986 747.508 39.986 747.508 39.8639C747.63 39.6197 747.875 39.3754 747.997 39.0091C747.875 39.4975 747.875 39.8639 747.753 40.2302C747.753 40.2302 747.753 40.1081 747.63 40.1081ZM748.732 37.91C749.221 37.1773 749.711 36.3225 750.201 35.5898C750.078 37.0552 749.956 38.3985 749.956 39.8639C749.711 39.3754 749.589 38.887 749.344 38.2764C749.344 37.91 748.977 37.7879 748.732 37.91ZM744.203 47.0688C744.326 46.5803 744.448 46.214 744.448 45.7255C744.448 45.8476 744.57 45.9697 744.57 46.214C744.57 46.9467 745.672 46.8245 745.794 46.214C745.794 46.0918 745.794 46.0918 745.917 45.9697C746.039 46.5803 746.161 47.1909 746.284 47.8015C746.406 48.2899 746.896 48.4121 747.141 48.2899C747.263 48.4121 747.263 48.5342 747.385 48.6563C746.161 48.2899 744.815 47.9236 744.203 47.0688ZM755.586 49.1448C754.974 48.7784 754.484 48.4121 753.995 48.0457C754.729 48.1678 755.464 48.2899 756.198 48.5342C756.076 48.5342 756.076 48.6563 756.076 48.6563C755.953 48.7784 755.708 48.9005 755.586 49.1448ZM756.565 50.3659C756.688 50.2438 756.688 50.1217 756.81 49.9996C757.055 50.1217 757.299 50.3659 757.544 50.6102C757.177 50.6102 756.932 50.488 756.565 50.3659ZM760.359 51.3429C759.992 51.2207 759.625 51.0986 759.135 51.0986C759.258 50.9765 759.258 50.9765 759.38 50.8544C759.38 50.8544 759.38 50.7323 759.503 50.7323C759.747 50.8544 760.115 51.0986 760.359 51.3429ZM761.583 51.7092C761.706 51.3429 761.706 50.7323 762.93 52.0756C762.44 51.9534 762.073 51.8313 761.583 51.7092ZM764.766 52.6861C764.888 52.564 765.01 52.3198 764.888 52.0756C766.234 52.8083 767.458 53.541 768.682 54.2737C767.458 53.7852 766.112 53.1746 764.766 52.6861ZM779.331 60.2574C776.393 55.3727 769.906 52.1977 764.888 49.6332C759.992 47.1909 754.852 45.7255 749.344 46.3361C748.487 46.4582 748.609 47.6794 749.466 47.6794C750.568 47.5572 751.669 47.5572 752.648 47.6794C752.526 47.8015 752.404 47.9236 752.404 48.0457C752.404 48.2899 752.281 48.5342 752.281 48.6563C751.669 48.2899 751.057 48.0457 750.323 47.6794C749.833 47.4351 749.344 47.8015 749.344 48.2899C749.344 48.4121 749.344 48.4121 749.344 48.5342C748.732 47.9236 748.242 47.1909 747.508 46.5803C747.508 45.4813 747.508 44.2601 747.508 43.161C747.753 43.8937 748.12 44.6264 748.365 45.4813C748.487 45.8476 748.732 45.9697 748.977 45.9697C749.344 46.214 749.833 46.3361 750.323 45.7255C755.953 38.5206 760.727 30.7051 765.745 23.1339C769.906 17.0281 773.701 9.9453 778.474 4.20582C778.596 4.20582 778.596 4.20582 778.719 4.32793C779.208 4.57217 779.576 3.83947 779.208 3.47312C779.576 2.98465 779.943 2.6183 780.31 2.25195C780.432 2.25195 780.555 2.37407 780.677 2.37407C792.06 5.18275 800.995 12.5098 805.891 23.1339C805.523 23.5003 805.401 23.8666 805.279 24.4772C804.911 24.1108 804.299 24.1108 803.932 24.7214C796.466 37.0552 787.654 48.6563 779.331 60.2574ZM805.646 26.0647C805.646 25.9426 805.768 25.9426 805.768 25.8205C806.013 25.8205 806.135 25.6984 806.258 25.4541C807.115 22.157 816.417 25.5762 818.008 26.0647C821.068 27.1638 824.128 28.7513 826.576 30.9494C831.716 35.4677 832.94 40.4745 833.797 46.9467C833.797 47.1909 834.042 47.4351 834.286 47.5572C834.042 47.5572 833.797 47.6794 833.552 47.9236C824.25 59.1583 814.458 70.1488 805.646 81.872C803.688 70.0267 792.427 60.9901 780.555 60.7458C789.49 49.5111 797.201 37.6658 805.646 26.0647ZM792.672 66.3632C792.549 66.4853 792.549 66.6074 792.427 66.7296C791.815 65.9969 791.081 65.5084 790.102 65.0199C789.857 64.8978 789.612 65.0199 789.49 65.2642C788.633 64.6536 787.776 64.043 786.797 63.5545C788.878 64.2872 790.836 65.142 792.672 66.3632ZM802.219 87.9779C802.096 85.7798 801.607 83.5817 800.995 81.5057C801.24 81.3836 801.484 81.1393 801.484 80.773V80.6509C802.219 82.849 802.831 84.9249 804.055 87.0009C803.443 87.3673 802.953 87.6115 802.219 87.9779ZM823.76 67.0959C824.372 65.8747 825.841 62.6997 826.331 63.4324C826.576 63.7988 827.188 63.6766 827.31 63.3103C827.555 62.4555 827.922 61.7228 828.167 60.868C828.167 61.1122 828.167 61.3564 828.167 61.6007C828.167 61.8449 828.411 62.0891 828.534 62.0891C828.289 62.3334 828.167 62.4555 828.044 62.5776L823.76 67.0959Z"
                        fill="black" fill-opacity="0.6" />
                    <path
                        d="M799.771 22.5233C797.201 14.2194 788.021 9.82319 780.677 6.77027C779.943 6.40392 779.576 7.38085 780.188 7.74721C788.021 11.4107 794.263 15.5627 798.547 23.1339C798.914 23.8666 800.016 23.256 799.771 22.5233Z"
                        fill="black" fill-opacity="0.6" />
                    <path
                        d="M796.466 28.1408C793.773 20.3253 785.94 14.708 778.352 12.1435C777.74 11.8993 777.372 12.7541 777.984 12.9983C786.063 16.1734 790.714 21.7907 795.487 28.7514C795.854 29.2399 796.711 28.7514 796.466 28.1408Z"
                        fill="black" fill-opacity="0.6" />
                    <path
                        d="M792.427 33.3916C790.958 25.5761 781.289 20.6915 775.047 17.2722C774.435 17.028 773.945 17.8828 774.435 18.2491C777.617 20.203 780.922 22.1569 783.859 24.4771C787.164 27.1637 789 30.3387 791.448 33.758C791.693 34.3685 792.549 34.0022 792.427 33.3916Z"
                        fill="black" fill-opacity="0.6" />
                    <path
                        d="M788.878 38.887C785.328 31.56 777.25 26.7974 769.661 24.8435C769.049 24.7214 768.805 25.6984 769.417 25.8205C777.617 28.3849 782.268 33.2696 787.654 39.6197C788.143 39.986 789.245 39.4976 788.878 38.887Z"
                        fill="black" fill-opacity="0.6" />
                    <path
                        d="M783.247 46.8246C780.799 40.2303 772.966 34.6129 766.234 33.5139C765.745 33.3917 765.5 34.2466 765.99 34.3687C769.294 35.712 772.477 37.0552 775.292 39.3755C778.107 41.6957 779.943 44.6265 782.146 47.4352C782.635 48.0457 783.492 47.5573 783.247 46.8246Z"
                        fill="black" fill-opacity="0.6" />
                    <path
                        d="M781.779 53.419C777.128 46.8247 769.417 42.4285 761.828 40.2304C761.216 40.1083 760.849 40.841 761.461 41.0852C769.417 43.7718 775.169 48.4122 780.922 54.3959C781.411 54.7623 782.146 54.0296 781.779 53.419Z"
                        fill="black" fill-opacity="0.6" />
                    <path
                        d="M806.135 69.1721C807.604 66.4855 804.299 63.9211 802.464 62.3336C798.547 58.7922 793.651 56.1056 788.633 54.7623C787.898 54.5181 787.531 55.495 788.143 55.8614C793.773 58.0595 803.81 62.3336 804.911 69.1721C805.156 69.6606 805.891 69.6606 806.135 69.1721Z"
                        fill="black" fill-opacity="0.6" />
                    <path
                        d="M810.909 63.6766C808.339 56.5939 799.526 50.7323 792.305 49.8774C792.06 49.8774 791.815 50.2438 792.182 50.3659C795.854 51.7092 799.281 53.1746 802.341 55.6169C805.523 58.0593 807.359 61.2343 809.807 64.1651C810.297 64.8978 811.154 64.4093 810.909 63.6766Z"
                        fill="black" fill-opacity="0.6" />
                    <path
                        d="M814.581 58.0595C815.56 55.373 811.398 52.4422 809.685 50.8546C805.891 47.3133 801.362 44.7488 796.466 42.7949C795.732 42.5507 795.242 43.6498 795.977 43.894C799.404 45.2373 802.586 46.9469 805.523 49.2671C806.747 50.1219 813.602 57.2047 813.357 57.3268C812.99 57.6932 812.99 58.3038 813.479 58.4259C813.602 58.4259 813.724 58.4259 813.846 58.548C814.214 58.548 814.458 58.3038 814.581 58.0595Z"
                        fill="black" fill-opacity="0.6" />
                    <path
                        d="M819.477 53.2965C816.294 46.0916 808.339 41.0848 800.995 38.8867C800.26 38.6425 799.893 39.7416 800.505 39.9858C808.583 42.6724 813.112 47.6791 818.375 54.0292C818.865 54.5177 819.844 54.0292 819.477 53.2965Z"
                        fill="black" fill-opacity="0.6" />
                    <path
                        d="M825.107 45.6034C822.047 37.4216 812.01 32.659 803.81 31.8042C803.198 31.8042 803.076 32.659 803.688 32.7811C808.094 33.3917 812.133 34.9792 815.805 37.5437C819.232 39.986 821.313 43.1611 823.883 46.214C824.495 46.8246 825.474 46.3361 825.107 45.6034Z"
                        fill="black" fill-opacity="0.6" />
                    <path
                        d="M827.31 40.9631C824.372 34.1246 818.13 29.1178 811.154 26.9197C810.542 26.6755 810.052 27.6524 810.786 27.8967C817.885 30.5832 822.414 35.3458 826.086 41.6959C826.453 42.3064 827.677 41.6958 827.31 40.9631Z"
                        fill="black" fill-opacity="0.6" />
                </g>
                <g opacity="0.61" clip-path="url(#clip1)">
                    <path
                        d="M1068.2 564.498C1066.8 574.698 1061 584.098 1052.1 589.298C1043.9 593.998 1029.1 596.898 1022.2 588.498C1021.8 587.998 1021.5 587.498 1021.2 586.898C1023 586.798 1024.8 586.398 1026.6 585.698C1030.7 583.998 1034.9 578.998 1031.4 574.598C1028.1 570.398 1021.6 572.898 1019 576.598C1017.4 578.798 1017 581.398 1017.4 583.898C1008.4 582.698 1000.2 576.498 995.2 569.198C992.3 564.998 990.3 560.198 989.3 555.198C988.3 549.898 987.9 542.598 991.9 538.398C993 537.298 991.3 535.498 990.1 536.698C985.7 540.998 985.6 547.898 986.3 553.598C987.2 559.998 989.7 566.098 993.4 571.298C998.7 578.598 1008.4 586.198 1018.2 586.898C1019 588.898 1020.4 590.698 1022 591.998C1027.1 596.298 1034.4 596.898 1040.7 595.998C1056.7 593.798 1068.7 580.598 1069.7 564.698C1069.7 563.898 1068.3 563.698 1068.2 564.498ZM1026.6 574.998C1031.5 575.198 1030 580.698 1027.1 582.498C1025 583.698 1022.6 584.198 1020.2 584.098C1019.3 579.698 1021.1 574.698 1026.6 574.998Z"
                        fill="black" />
                </g>
                <g opacity="0.61" clip-path="url(#clip2)">
                    <path
                        d="M221.891 673.121C231.94 675.358 240.829 681.915 245.277 691.214C249.284 699.774 250.952 714.763 242.011 720.946C241.479 721.303 240.956 721.561 240.334 721.81C240.383 720.008 240.133 718.181 239.584 716.329C238.228 712.103 233.592 707.505 228.918 710.629C224.46 713.571 226.414 720.255 229.887 723.152C231.947 724.928 234.506 725.542 237.03 725.349C235.091 734.22 228.235 741.88 220.547 746.26C216.122 748.803 211.173 750.4 206.108 750.984C200.743 751.543 193.435 751.339 189.58 747.005C188.575 745.818 186.64 747.364 187.737 748.659C191.659 753.399 198.527 754.068 204.266 753.841C210.718 753.473 217.004 751.485 222.491 748.227C230.204 743.548 238.579 734.509 240.086 724.8C242.145 724.168 244.055 722.921 245.482 721.434C250.189 716.706 251.389 709.481 251.013 703.128C250.141 687.001 237.977 673.952 222.214 671.643C221.417 671.577 221.102 672.955 221.891 673.121ZM228.92 715.446C229.524 710.579 234.881 712.528 236.436 715.567C237.458 717.759 237.758 720.192 237.461 722.575C233.001 723.109 228.167 720.902 228.92 715.446Z"
                        fill="black" />
                </g>
                <g opacity="0.61" clip-path="url(#clip3)">
                    <path
                        d="M179.344 639.804C173.452 634.596 165.82 631.503 157.019 632.256C143.772 633.2 133.517 642.44 122.864 649.369C116.386 653.686 108.313 658.456 100.239 657.718C92.1644 656.98 86.8912 650.152 82.2687 644.102C90.1357 641.708 96.8396 634.778 99.9139 626.917C105.681 612.836 102.588 596.031 96.8327 582.334C91.6661 570.128 75.5379 553.209 61.5149 564.499C61.3859 564.607 61.2569 564.715 61.2363 564.952C55.8115 568.168 53.676 573.481 52.5371 579.723C50.9756 588.081 50.3229 597.001 50.6613 605.533C51.1043 618.385 54.7243 637.394 68.1076 643.167C70.4207 644.097 72.6459 644.659 74.7833 644.855C76.1183 654.316 82.9922 662.008 91.7698 665.684C101.931 669.965 112.106 667.184 121.081 661.658C131.714 654.967 141.292 643.869 154.275 641.823C162.277 640.639 170.729 643.925 175.548 650.472C180.909 657.667 180.535 666.134 177.59 673.887L177.569 674.124C177.073 674.319 176.795 674.772 176.862 675.377C177.431 677.105 179.228 678.467 180.998 678.748C181.948 678.835 183.027 678.814 184.147 678.318C184.71 678.728 185.423 678.793 185.851 677.994C192.832 665.103 189.466 650.068 180.212 640.841C180.253 640.366 179.927 639.977 179.344 639.804ZM125.611 650.817C125.59 651.055 125.807 651.314 126.044 651.336C125.311 651.508 124.578 651.681 123.974 651.745C124.599 651.443 125.223 651.141 125.611 650.817ZM120.79 653.969C120.898 654.098 120.898 654.098 121.136 654.12C121.373 654.142 121.59 654.401 121.828 654.423C121.095 654.595 120.253 654.638 119.649 654.702C119.907 654.487 120.294 654.163 120.79 653.969ZM99.8424 660.914C100.317 660.958 100.596 660.504 100.617 660.267C101.329 660.332 102.042 660.397 102.775 660.224C103.141 660.138 103.616 660.182 103.854 660.203C103.833 660.441 103.812 660.679 104.029 660.938C102.95 660.959 102 660.872 100.921 660.893C100.446 660.85 100.385 661.563 100.86 661.606C102.027 661.952 103.214 662.061 104.401 662.169C104.164 662.147 103.926 662.126 103.689 662.104C100.622 661.584 97.447 660.935 94.2718 660.286C96.1717 660.459 98.0716 660.633 99.8424 660.914ZM90.0009 655.705C87.9458 654.559 85.6533 653.391 83.4692 652.354C84.6566 652.462 85.844 652.571 87.0109 652.917C87.8785 653.954 88.8752 654.883 90.0009 655.705ZM77.0497 644.942C78.2577 644.813 79.4657 644.684 80.5652 644.425C80.7821 644.685 80.9785 645.182 81.3038 645.571C79.8995 645.203 78.4746 645.072 77.0497 644.942ZM90.2178 655.964C90.8891 656.504 91.452 656.915 92.2523 657.347C91.4314 657.152 90.848 656.979 90.0271 656.785C90.2851 656.569 90.4347 656.223 90.2178 655.964ZM53.9862 590.631C54.7062 582.315 55.2449 571.948 61.8459 566.205C62.0834 566.227 62.3209 566.249 62.6874 566.163C65.1857 564.954 67.5138 564.329 69.8007 564.179C69.3052 564.373 69.0266 564.826 69.0939 565.431C71.276 576.167 72.7251 587.075 75.1653 597.595C75.1653 597.595 75.0362 597.703 74.9278 597.574C68.0725 599.342 61.0003 600.851 54.0366 602.489C53.9075 602.597 53.6701 602.575 53.541 602.683C53.4158 598.601 53.6365 594.67 53.9862 590.631ZM63.0251 635.519C57.9277 629.425 55.5398 621.065 54.2982 613.289C53.9617 610.265 53.6251 607.241 53.526 604.238C53.6345 604.368 53.9804 604.519 54.2385 604.303C61.6155 603.421 69.0542 601.826 76.3845 600.101C82.9817 598.549 90.0539 597.04 96.279 594.257C97.5282 593.653 96.9803 591.687 95.5142 592.032C89.0666 593.238 82.7742 595.417 76.5229 597.121C75.8947 586.407 73.7331 575.434 71.2929 564.914C71.0966 564.417 70.7712 564.028 70.2963 563.984C84.8595 563.04 93.8015 580.022 97.4197 593.523C101.41 608.255 101.582 628.386 87.4449 638.229C79.677 643.626 69.0781 643.016 63.0251 635.519ZM76.5392 646.692C77.6854 647.275 78.9607 647.751 80.107 648.335C79.6321 648.291 79.1571 648.248 78.8111 648.097C77.8612 648.01 77.6293 649.306 78.4297 649.738C79.1215 650.041 79.8134 650.343 80.3968 650.516C80.1594 650.495 79.9219 650.473 79.6844 650.451C79.2094 650.408 79.0598 650.753 78.9102 651.099C78.0631 649.824 77.2366 648.312 76.5392 646.692ZM79.6488 652.244C81.487 653.13 83.2167 653.887 85.0549 654.774C84.1049 654.687 82.9175 654.578 81.947 654.729C81.947 654.729 81.818 654.837 81.7095 654.707C80.8213 653.908 80.1706 653.13 79.6488 652.244ZM84.4415 657.711C83.8786 657.3 83.5533 656.911 83.1194 656.393C85.4531 657.085 87.9159 657.669 90.2496 658.361C88.3497 658.188 86.3414 657.884 84.4415 657.711ZM90.7825 661.882C91.02 661.904 91.3659 662.055 91.6034 662.077C91.3659 662.055 91.2369 662.163 91.1284 662.034C89.8737 661.32 88.6189 660.607 87.4932 659.786C88.5516 660.002 89.481 660.327 90.5394 660.543C90.1317 661.104 90.199 661.709 90.7825 661.882ZM102.492 664.868C99.6423 664.608 97.0505 664.131 94.4999 663.18C95.3414 663.137 96.0539 663.202 96.7869 663.03C99.2702 663.376 101.645 663.593 104.149 663.703C105.099 663.789 106.049 663.876 107.128 663.855C107.603 663.899 107.949 664.05 108.315 663.964C106.096 664.719 104.284 664.912 102.492 664.868ZM111.01 663.252C110.664 663.101 110.426 663.079 110.297 663.187C110.318 662.949 110.318 662.949 110.209 662.82C110.684 662.863 111.397 662.928 111.872 662.972C111.614 663.188 111.376 663.166 111.01 663.252ZM114.608 661.785C114.499 661.655 114.391 661.526 114.153 661.504C112.728 661.374 111.195 661.114 109.791 660.746C112.078 660.596 114.236 660.554 116.373 660.749C115.857 661.181 115.341 661.612 114.608 661.785ZM116.139 656.537L116.248 656.667C116.356 656.796 116.594 656.818 116.81 657.077C116.206 657.142 115.494 657.077 114.761 657.249C115.148 656.925 115.644 656.731 116.139 656.537ZM118.484 659.864C118.505 659.627 118.288 659.367 117.942 659.216L116.3 658.826C117.616 658.827 118.824 658.698 120.249 658.828C119.496 659.238 119 659.432 118.484 659.864ZM121.023 658.181C121.173 657.835 121.085 657.468 120.631 657.187C120.176 656.906 119.722 656.625 119.376 656.474C121.08 656.15 122.892 655.957 124.466 655.741C123.434 656.605 122.293 657.339 121.023 658.181ZM125.22 655.331C125.369 654.986 125.41 654.511 124.956 654.23C124.502 653.949 124.047 653.668 123.939 653.538C125.534 653.085 127 652.74 128.595 652.287C129.328 652.115 129.41 651.164 128.718 650.862C128.61 650.732 128.373 650.71 128.373 650.71C129.601 650.344 130.938 650.107 132.275 649.87C129.844 651.683 127.651 653.518 125.22 655.331ZM132.92 649.33C133.07 648.985 132.874 648.488 132.399 648.444C132.29 648.315 132.161 648.423 132.053 648.293C132.894 648.25 133.627 648.078 134.469 648.035C134.19 648.488 133.545 649.028 132.92 649.33ZM130.968 646.996C131.613 646.457 132.238 646.155 132.883 645.615C132.971 645.982 133.188 646.241 133.425 646.263C133.663 646.285 133.88 646.544 134.117 646.566C133.147 646.717 132.176 646.867 130.968 646.996ZM134.153 644.773C134.906 644.363 135.68 643.715 136.434 643.305C136.413 643.543 136.63 643.802 136.976 643.954C137.431 644.235 137.906 644.278 138.36 644.559C136.915 644.666 135.598 644.666 134.153 644.773ZM137.941 642.485C138.824 641.967 139.577 641.557 140.46 641.039L140.568 641.169C141.152 641.342 141.715 641.753 142.298 641.926C140.853 642.033 139.278 642.248 137.941 642.485ZM145.081 641.581C144.626 641.3 144.28 641.149 143.697 640.976C144.776 640.955 145.984 640.826 147.063 640.805C146.567 640.999 145.814 641.409 145.081 641.581ZM143.237 639.377C143.861 639.075 144.615 638.665 145.24 638.363C145.565 638.752 145.911 638.903 146.128 639.163C145.157 639.313 144.316 639.356 143.237 639.377ZM148.579 637.112C150.304 636.551 152.028 635.99 153.86 635.559C153.819 636.034 154.124 636.661 154.707 636.834C156.587 637.245 158.466 637.656 160.474 637.959C156.308 637.698 152.379 637.459 148.579 637.112ZM181.029 645.226C179.407 644.599 177.895 644.101 176.144 643.582C176.273 643.474 176.382 643.604 176.511 643.496C177.461 643.583 177.951 642.071 176.892 641.855C176.546 641.703 176.18 641.789 175.834 641.638C176.309 641.681 177.021 641.747 177.496 641.79C178.839 642.871 179.944 643.929 181.029 645.226ZM185.967 654.537C184.712 653.824 180.107 651.727 182.713 650.648C183.338 650.346 183.291 649.504 182.599 649.201C180.849 648.682 179.248 647.817 177.648 646.952C178.856 646.823 179.935 646.802 181.143 646.673C181.509 646.587 181.767 646.371 181.808 645.896C183.482 648.683 185.027 651.578 185.967 654.537ZM187.059 662.659C185.784 662.184 184.638 661.6 183.254 660.995C183.987 660.822 184.482 660.628 185.215 660.455C185.69 660.499 186.098 659.937 185.902 659.441C184.967 657.799 181.507 656.285 185.735 655.833C185.973 655.855 186.102 655.747 185.993 655.617C186.758 657.843 187.027 660.262 187.059 662.659ZM187.009 666.007C186.317 665.705 185.625 665.402 184.933 665.099C185.578 664.559 186.332 664.149 187.065 663.977C187.003 664.69 186.941 665.402 187.009 666.007ZM185.312 673.156C184.858 672.875 184.512 672.724 184.058 672.443C184.682 672.14 185.178 671.946 185.782 671.882C185.632 672.227 185.462 672.81 185.312 673.156ZM186.334 669.657C185.75 669.484 185.296 669.203 184.95 669.052C185.466 668.62 186.09 668.318 186.715 668.016C186.545 668.599 186.504 669.074 186.334 669.657ZM178.521 649.307C179.213 649.61 179.796 649.783 180.488 650.086C180.23 650.301 179.972 650.517 179.694 650.971C179.26 650.452 178.826 649.934 178.521 649.307ZM174.705 645.007C174.596 644.877 174.488 644.748 174.25 644.726C174.942 645.029 175.763 645.224 176.455 645.526C175.98 645.483 175.613 645.569 175.138 645.526C175.03 645.396 174.921 645.266 174.705 645.007ZM180.479 652.958C181.388 653.52 182.534 654.104 183.443 654.666C182.71 654.838 181.868 654.881 181.373 655.075C181.197 654.341 180.892 653.714 180.479 652.958ZM182.784 662.269C183.476 662.571 184.277 663.004 185.098 663.198C184.344 663.609 183.59 664.019 182.816 664.666C182.878 663.953 182.831 663.111 182.784 662.269ZM167.81 637.552C168.393 637.725 168.93 637.056 168.971 636.581C170.484 637.078 171.868 637.684 173.231 638.527C170.639 638.05 168.177 637.466 165.585 636.99C166.277 637.292 166.989 637.357 167.81 637.552ZM171.797 641.269C171.518 641.723 171.694 642.457 172.277 642.63C172.148 642.738 172.019 642.846 171.89 642.954C170.765 642.133 169.618 641.549 168.472 640.965C169.659 641.074 170.738 641.053 171.797 641.269ZM182.82 675.682C182.324 675.876 181.829 676.07 181.354 676.027C180.641 675.962 179.82 675.767 179.258 675.356C179.387 675.248 179.753 675.162 179.774 674.925C181.337 672.074 182.317 669.051 182.713 665.854C182.822 665.984 182.93 666.113 183.039 666.243C183.731 666.546 184.314 666.719 184.877 667.129C184.123 667.54 183.37 667.95 182.725 668.489C182.337 668.813 182.276 669.526 182.839 669.937C183.293 670.218 183.747 670.499 184.202 670.78C183.34 671.06 182.586 671.47 181.703 671.988C181.079 672.29 181.492 673.046 181.947 673.327C182.293 673.479 182.638 673.63 182.984 673.781C182.855 673.889 182.726 673.997 182.835 674.127C182.855 673.889 182.618 673.868 182.38 673.846C181.885 674.04 181.518 674.126 181.023 674.32C180.419 674.385 180.574 675.357 181.178 675.292C182.148 675.142 182.99 675.099 183.96 674.948C183.594 675.034 183.315 675.488 182.82 675.682Z"
                        fill="black" />
                </g>
                <g opacity="0.61" clip-path="url(#clip4)">
                    <path
                        d="M1145.98 496.939C1148.2 491.886 1150.36 486.987 1152.73 482.002C1154.82 477.256 1156.91 472.509 1158.69 467.629C1160.48 462.749 1161.35 457.467 1163.29 452.654C1163.62 451.889 1162.78 451.334 1162.35 451.879C1159.49 455.917 1158.46 461.132 1156.6 465.792C1154.68 470.979 1152.52 475.878 1150.3 480.93C1148.07 485.983 1145.76 490.815 1143.69 495.934C1141.6 500.68 1139.16 505.819 1138.21 510.881C1137.89 512.019 1139.69 512.45 1140.17 511.378C1142.56 506.766 1143.89 501.685 1145.98 496.939Z"
                        fill="#3C3C3B" />
                    <path
                        d="M1198.75 521.077C1203.24 510.446 1207.59 499.748 1212.09 489.117C1214.76 482.62 1221.46 472.774 1213.26 467.884C1203.13 461.599 1191.8 456.796 1181.26 451.428C1176.68 449.046 1171.59 445.343 1166.62 444.253C1165.42 444.09 1164 444.014 1162.97 444.291C1161.9 443.823 1160.23 444.732 1159.44 445.296C1158.36 446.1 1157.52 447.191 1156.98 448.416C1156.71 449.028 1157.25 449.449 1157.77 449.497C1147.37 469.41 1138.67 490.433 1129.33 510.814C1127.78 514.336 1125.42 518.048 1126.43 521.962C1127.17 525.215 1129.88 527.32 1132.64 528.899C1141.75 534.19 1152.2 537.691 1161.79 541.91C1166.66 544.053 1171.61 546.417 1176.55 548.407C1179.81 549.66 1182.73 550.033 1185.6 547.641C1188.47 545.248 1190.01 541.354 1191.49 537.985C1194.29 532.455 1196.41 526.809 1198.75 521.077ZM1184.11 544.426C1180.84 547.737 1175.38 544.053 1171.88 542.513C1167.62 540.637 1163.35 538.762 1158.87 536.973C1151.27 533.625 1143.37 530.515 1135.83 527.014C1131.03 524.717 1128.44 521.933 1130.34 516.374C1131.85 512.106 1134.13 508.173 1135.88 504.193C1144.19 485.734 1153.1 467.544 1160.34 448.617C1161.2 449.545 1163.06 449.449 1163.36 447.937C1164 445.66 1173.51 451.304 1174.42 451.706C1178.55 453.888 1182.74 455.916 1186.87 458.097C1194.73 462.106 1202.66 465.962 1210.45 470.124C1213.36 471.769 1214.5 473.731 1213.61 476.994C1213.02 478.745 1212.34 480.276 1211.6 481.96C1209.65 486.4 1207.85 490.907 1205.89 495.347C1202.34 503.834 1198.85 512.169 1195.15 520.589C1193.4 524.57 1191.86 528.465 1190.11 532.445C1188.8 536.254 1187.1 541.354 1184.11 544.426Z"
                        fill="#3C3C3B" />
                    <path
                        d="M1189.23 527.853C1191.3 526.025 1192.36 523.202 1193.36 520.532C1195.28 515.346 1197.04 510.093 1198.96 504.906C1202.67 494.84 1206.37 484.774 1209.24 474.525C1209.24 474.525 1209.24 474.525 1209.31 474.372C1209.51 473.913 1209.48 473.167 1208.72 472.832C1201.08 470.383 1193.66 467.848 1186.57 464.547C1179.1 460.892 1172.04 456.692 1164.91 452.272C1164.06 451.717 1163.22 452.808 1163.91 453.295C1176.23 463.284 1191.95 471.302 1207.4 474.994C1203.56 483.721 1200.55 492.63 1197.32 501.625C1194.22 510.313 1191.8 519.116 1186.88 527.001C1186.66 527.087 1186.59 527.24 1186.45 527.547C1184.81 532.12 1145.74 512.737 1141.48 510.862C1140.57 510.46 1139.59 511.857 1140.59 512.479C1149.59 518.449 1159.55 522.649 1169.64 526.543C1173.97 528.265 1178.77 530.561 1183.5 531.365C1186.21 531.824 1188.49 531.183 1189.24 528.226C1189.09 528.159 1189.16 528.006 1189.23 527.853Z"
                        fill="#3C3C3B" />
                    <path
                        d="M1163.6 531.193C1164.05 529.748 1163.53 528.055 1162.58 526.907C1162.71 526.601 1162.69 526.227 1162.39 526.093C1160.33 525.003 1157.52 525.596 1156.21 527.759C1155.05 529.988 1156.2 532.323 1158.26 533.414C1160.39 534.351 1162.89 533.624 1163.6 531.193ZM1159.12 531.05C1157.51 530.16 1158.03 528.562 1159.18 527.605C1159.2 527.979 1159.59 528.333 1160.11 528.38C1161.09 528.629 1161.52 529.73 1161.11 530.648C1160.78 531.414 1159.81 531.538 1159.12 531.05Z"
                        fill="#3C3C3B" />
                </g>
                <g clip-path="url(#clip5)">
                    <path
                        d="M923.934 94.9311C922.941 94.5157 922.175 95.8661 923.099 96.3528C933.616 102.199 937.684 114.325 935.17 125.733C933.946 131.259 931.522 136.867 927.955 141.354C924.038 146.197 918.893 148.011 913.089 147.497C913.228 147.213 913.296 146.859 913.365 146.646C914.949 141.894 915.181 136.235 911.61 132.307C908.826 129.291 904.075 127.849 900.422 130.568C896.981 133.216 896.462 138.453 898.263 142.185C900.351 146.338 904.755 148.562 909.29 149.653C908.112 152.28 906.436 154.699 904.827 156.622C900.769 161.467 895.549 162.928 889.524 161.355C888.178 161.014 887.698 162.786 888.695 163.484C892.965 166.557 899.245 165.016 903.249 162.081C907.325 159.216 910.184 154.736 912.052 150.123C912.406 150.191 912.831 150.187 913.185 150.254C918.846 150.769 924.278 149.236 928.342 145.098C932.687 140.675 935.743 134.425 937.386 128.471C940.88 115.782 936.993 100.189 923.934 94.9311ZM900.392 135.165C901.496 132.044 904.597 130.885 907.509 132.344C910.35 133.733 911.721 136.761 911.819 139.801C911.91 142.134 911.296 144.614 910.469 147.026C904.871 145.732 897.976 141.763 900.392 135.165Z"
                        fill="black" />
                </g>
                <g clip-path="url(#clip6)">
                    <path
                        d="M31.88 274.406C21.8848 271.937 13.1497 265.177 8.91841 255.778C5.11041 247.128 3.78915 232.104 12.8707 226.13C13.4101 225.785 13.939 225.539 14.5673 225.304C14.4767 227.105 14.6845 228.937 15.1905 230.801C16.4481 235.057 20.9768 239.762 25.7217 236.746C30.2466 233.908 28.4469 227.18 25.042 224.204C23.0232 222.381 20.48 221.708 17.9518 221.842C20.0952 213.019 27.1263 205.519 34.9134 201.318C39.3961 198.878 44.3804 197.396 49.4581 196.929C54.834 196.494 62.1355 196.867 65.8897 201.288C66.8674 202.498 68.8368 200.998 67.7702 199.678C63.9588 194.849 57.1079 194.021 51.3659 194.115C44.9066 194.334 38.5768 196.176 33.0152 199.306C25.1964 203.806 16.6148 212.65 14.8841 222.321C12.8108 222.905 10.873 224.107 9.41137 225.561C4.59696 230.179 3.2296 237.375 3.45943 243.734C3.95791 259.877 15.8172 273.204 31.5228 275.877C32.3183 275.961 32.665 274.59 31.88 274.406ZM25.8307 231.93C25.1145 236.782 19.8036 234.71 18.3198 231.636C17.3482 229.421 17.1044 226.981 17.4573 224.605C21.9277 224.175 26.7097 226.493 25.8307 231.93Z"
                        fill="black" />
                </g>
                <g clip-path="url(#clip7)">
                    <path
                        d="M852.5 191.898C854 190.298 855.1 188.398 855 185.998C854.9 183.398 853.3 180.798 851.2 179.298C846.6 176.098 840.8 178.298 837.7 182.498C836.5 177.498 831.9 173.798 826.5 174.298C820.2 174.998 813.4 180.398 812.6 186.898C809.9 184.098 804.9 184.898 802.4 187.798C800.2 190.298 800.4 193.998 802.4 196.098C797.6 196.798 793 200.298 792.1 205.298C791 211.598 797.2 213.498 802.3 213.298C799.9 217.098 799.8 223.398 803.2 226.298C807.7 230.098 813.3 226.098 816.4 222.198C815.4 228.098 820.3 233.798 826.7 233.298C832.7 232.798 836.2 227.498 835.7 222.098C839.1 223.998 844.5 223.698 847.5 222.498C850.9 221.198 853.4 216.898 851.7 213.998C858.5 214.998 865 209.698 865 202.498C865 196.398 858.5 190.398 852.5 191.898ZM850 212.298C849.8 212.198 849.6 211.998 849.3 211.898C848.3 211.398 847.4 212.898 848.4 213.398C850.8 214.498 850.9 217.498 849.2 219.298C847.7 220.898 845.4 221.298 843.3 221.498C840.7 221.598 836.4 221.698 834.9 219.098C834.8 218.798 834.7 218.498 834.5 218.198C834.1 217.298 832.6 217.898 832.9 218.898C833 219.198 833.1 219.498 833.2 219.698C835.3 224.898 832.3 230.998 826.4 231.498C820.3 231.998 816.5 225.998 818 220.298C818.1 219.798 817.3 219.298 817 219.898C817 219.998 816.9 220.098 816.9 220.198C816.7 220.098 816.4 220.098 816.2 220.298C813.2 223.198 808.4 229.098 804.1 224.698C801.2 221.798 801.7 215.598 804.6 212.898C805.2 212.298 804.6 211.398 803.8 211.598C801.3 211.998 798.4 212.298 796.1 210.798C792.8 208.798 793.3 204.898 795.2 202.198C797.6 198.798 801.8 197.298 805.8 197.798C806.7 197.898 806.9 196.298 806 196.198C801.4 195.598 801.6 190.198 804.8 187.898C807.2 186.198 810.5 186.298 812.5 188.498C812.5 189.498 814.1 189.498 814.1 188.498C814.1 182.698 819.5 177.698 824.8 176.298C830.7 174.698 836.3 178.598 836.5 184.798C836.5 185.498 837.6 185.898 837.9 185.198C839.9 180.998 845.1 177.698 849.7 180.298C851.6 181.398 853 183.298 853.4 185.398C854 188.498 852.1 190.798 850.1 192.798C849.9 192.998 849.9 193.198 850 193.398C850 193.798 850.3 194.198 850.8 194.098C856.8 193.198 863.3 195.798 863 202.898C862.9 209.898 856.4 213.598 850 212.298Z"
                        fill="black" />
                </g>
                <g opacity="0.61" clip-path="url(#clip8)">
                    <path
                        d="M187.415 541.669C184.103 539.318 180.595 537.555 176.892 536.576C177.672 532.071 178.062 527.37 178.256 522.865C178.256 521.493 176.503 520.906 175.528 521.689C172.215 524.823 169.097 527.957 165.785 531.287C162.667 528.741 159.549 526.39 156.041 524.432C154.872 523.648 153.508 524.823 153.703 525.999C154.872 530.308 156.431 534.225 158.964 537.947C155.651 539.514 152.923 541.669 150.585 544.215C149.61 545.194 150.195 547.349 151.754 547.153C155.456 546.761 159.354 546.174 163.056 545.782C164.81 550.287 166.954 554.597 169.487 558.514C170.462 559.885 172.41 559.298 172.605 557.731C172.8 554.597 172.41 547.937 174.944 546.566C176.308 545.782 178.841 545.978 180.4 545.586C182.544 545.194 184.687 544.803 186.831 544.607C188.39 544.411 188.39 542.452 187.415 541.669ZM176.892 543.04C175.138 543.236 172.41 543.236 171.241 544.607C170.462 545.39 170.462 546.957 170.267 547.937C170.072 549.504 169.877 551.071 169.682 552.638C168.123 549.7 166.759 546.761 165.59 543.627C165.395 543.04 164.81 542.256 164.031 542.452L156.82 543.236C157.99 542.452 159.159 541.473 160.523 540.885C160.913 540.689 161.108 540.298 161.303 539.906C161.497 539.71 161.692 539.318 161.497 538.731C159.744 535.597 158.379 532.267 157.405 528.937C159.938 530.7 162.277 532.463 164.615 534.617C165.395 535.009 166.174 535.009 166.954 534.421C169.682 531.875 172.215 529.328 174.749 526.782C174.554 530.308 173.969 533.834 173.385 537.359C173.19 538.143 173.579 539.122 174.554 539.318C177.282 539.906 179.815 540.885 182.154 542.256C180.4 542.452 178.646 542.648 176.892 543.04Z"
                        fill="#3C3C3B" />
                </g>
                <g opacity="0.61" clip-path="url(#clip9)">
                    <path
                        d="M1206.42 186.669C1203.1 184.318 1199.59 182.555 1195.89 181.576C1196.67 177.071 1197.06 172.37 1197.26 167.865C1197.26 166.493 1195.5 165.906 1194.53 166.689C1191.22 169.823 1188.1 172.957 1184.78 176.287C1181.67 173.741 1178.55 171.39 1175.04 169.432C1173.87 168.648 1172.51 169.823 1172.7 170.999C1173.87 175.308 1175.43 179.225 1177.96 182.947C1174.65 184.514 1171.92 186.669 1169.58 189.215C1168.61 190.194 1169.19 192.349 1170.75 192.153C1174.46 191.761 1178.35 191.174 1182.06 190.782C1183.81 195.287 1185.95 199.597 1188.49 203.514C1189.46 204.885 1191.41 204.298 1191.61 202.731C1191.8 199.597 1191.41 192.937 1193.94 191.566C1195.31 190.782 1197.84 190.978 1199.4 190.586C1201.54 190.194 1203.69 189.803 1205.83 189.607C1207.39 189.411 1207.39 187.452 1206.42 186.669ZM1195.89 188.04C1194.14 188.236 1191.41 188.236 1190.24 189.607C1189.46 190.39 1189.46 191.957 1189.27 192.937C1189.07 194.504 1188.88 196.071 1188.68 197.638C1187.12 194.7 1185.76 191.761 1184.59 188.627C1184.39 188.04 1183.81 187.256 1183.03 187.452L1175.82 188.236C1176.99 187.452 1178.16 186.473 1179.52 185.885C1179.91 185.689 1180.11 185.298 1180.3 184.906C1180.5 184.71 1180.69 184.318 1180.5 183.731C1178.74 180.597 1177.38 177.267 1176.41 173.937C1178.94 175.7 1181.28 177.463 1183.62 179.617C1184.39 180.009 1185.17 180.009 1185.95 179.421C1188.68 176.875 1191.22 174.328 1193.75 171.782C1193.55 175.308 1192.97 178.834 1192.38 182.359C1192.19 183.143 1192.58 184.122 1193.55 184.318C1196.28 184.906 1198.82 185.885 1201.15 187.256C1199.4 187.452 1197.65 187.648 1195.89 188.04Z"
                        fill="#3C3C3B" />
                </g>
                <g opacity="0.61" clip-path="url(#clip10)">
                    <path
                        d="M213.415 231.669C210.103 229.318 206.595 227.555 202.892 226.576C203.672 222.071 204.062 217.37 204.256 212.865C204.256 211.493 202.503 210.906 201.528 211.689C198.215 214.823 195.097 217.957 191.785 221.287C188.667 218.741 185.549 216.39 182.041 214.432C180.872 213.648 179.508 214.823 179.703 215.999C180.872 220.308 182.431 224.225 184.964 227.947C181.651 229.514 178.923 231.669 176.585 234.215C175.61 235.194 176.195 237.349 177.754 237.153C181.456 236.761 185.354 236.174 189.056 235.782C190.81 240.287 192.954 244.597 195.487 248.514C196.462 249.885 198.41 249.298 198.605 247.731C198.8 244.597 198.41 237.937 200.944 236.566C202.308 235.782 204.841 235.978 206.4 235.586C208.544 235.194 210.687 234.803 212.831 234.607C214.39 234.411 214.39 232.452 213.415 231.669ZM202.892 233.04C201.138 233.236 198.41 233.236 197.241 234.607C196.462 235.39 196.462 236.957 196.267 237.937C196.072 239.504 195.877 241.071 195.682 242.638C194.123 239.7 192.759 236.761 191.59 233.627C191.395 233.04 190.81 232.256 190.031 232.452L182.82 233.236C183.99 232.452 185.159 231.473 186.523 230.885C186.913 230.689 187.108 230.298 187.303 229.906C187.497 229.71 187.692 229.318 187.497 228.731C185.744 225.597 184.379 222.267 183.405 218.937C185.938 220.7 188.277 222.463 190.615 224.617C191.395 225.009 192.174 225.009 192.954 224.421C195.682 221.875 198.215 219.328 200.749 216.782C200.554 220.308 199.969 223.834 199.385 227.359C199.19 228.143 199.579 229.122 200.554 229.318C203.282 229.906 205.815 230.885 208.154 232.256C206.4 232.452 204.646 232.648 202.892 233.04Z"
                        fill="#3C3C3B" />
                </g>
                <defs>
                    <clipPath id="clip0">
                        <rect width="94" height="90" fill="white" transform="translate(742 0.297852)" />
                    </clipPath>
                    <clipPath id="clip1">
                        <rect width="83.7" height="60.1" fill="white" transform="translate(986 536.298)" />
                    </clipPath>
                    <clipPath id="clip2">
                        <rect width="83.7" height="60.1" fill="white"
                            transform="translate(187 752.712) rotate(-85.2639)" />
                    </clipPath>
                    <clipPath id="clip3">
                        <rect width="90" height="167" fill="white" transform="translate(25 595.046) rotate(-39.9146)" />
                    </clipPath>
                    <clipPath id="clip4">
                        <rect width="68" height="92" fill="white" transform="translate(1160.06 441) rotate(23.754)" />
                    </clipPath>
                    <clipPath id="clip5">
                        <rect width="75.2" height="38.9" fill="white"
                            transform="translate(872 146.945) rotate(-45.5115)" />
                    </clipPath>
                    <clipPath id="clip6">
                        <rect width="83.7" height="60.1" fill="white"
                            transform="translate(68.6008 195.643) rotate(96.0604)" />
                    </clipPath>
                    <clipPath id="clip7">
                        <rect width="73" height="59" fill="white" transform="translate(792 174.298)" />
                    </clipPath>
                    <clipPath id="clip8">
                        <rect width="38" height="38" fill="white" transform="translate(150 521.298)" />
                    </clipPath>
                    <clipPath id="clip9">
                        <rect width="38" height="38" fill="white" transform="translate(1169 166.298)" />
                    </clipPath>
                    <clipPath id="clip10">
                        <rect width="38" height="38" fill="white" transform="translate(176 211.298)" />
                    </clipPath>
                </defs>
            </svg>