<svg width="1236" height="688" viewBox="0 0 1236 688" fill="none" xmlns="http://www.w3.org/2000/svg">
                <g opacity="0.61" clip-path="url(#clip0)">
                    <path
                        d="M43.8801 302.108C33.8849 299.639 25.1498 292.879 20.9185 283.48C17.1105 274.829 15.7892 259.806 24.8708 253.831C25.4102 253.486 25.9391 253.241 26.5674 253.006C26.4768 254.806 26.6845 256.638 27.1906 258.502C28.4482 262.759 32.9768 267.463 37.7218 264.447C42.2467 261.609 40.4469 254.882 37.0421 251.906C35.0233 250.082 32.4801 249.41 29.9518 249.544C32.0953 240.721 39.1264 233.221 46.9135 229.02C51.3962 226.579 56.3805 225.097 61.4581 224.631C66.8341 224.196 74.1355 224.569 77.8897 228.99C78.8674 230.2 80.8369 228.7 79.7703 227.38C75.9588 222.55 69.108 221.722 63.3659 221.817C56.9067 222.036 50.5768 223.878 45.0152 227.008C37.1965 231.508 28.6149 240.351 26.8841 250.023C24.8108 250.607 22.8731 251.809 21.4114 253.263C16.597 257.88 15.2297 265.076 15.4595 271.436C15.958 287.579 27.8173 300.905 43.5228 303.579C44.3184 303.663 44.665 302.292 43.8801 302.108ZM37.8308 259.632C37.1146 264.483 31.8037 262.411 30.3199 259.337C29.3483 257.122 29.1045 254.683 29.4573 252.307C33.9277 251.877 38.7098 254.194 37.8308 259.632Z"
                        fill="black" />
                </g>
                <g clip-path="url(#clip1)">
                    <path
                        d="M1141.92 302.913C1128.27 295.291 1108.59 292.809 1094.94 301.672C1081.29 310.713 1079.16 329.681 1085.19 344.041C1091.57 359.109 1108.95 363.541 1124.01 363.895C1123.84 364.427 1123.84 364.959 1124.19 365.491C1125.96 368.859 1126.85 372.227 1127.03 376.127C1127.03 377.545 1128.62 378.609 1129.86 377.722C1143.16 368.681 1156.1 356.627 1159.29 339.963C1162.3 324.541 1155.57 310.536 1141.92 302.913ZM1156.1 336.063C1154.5 351.841 1142.98 363.718 1130.57 372.581C1130.04 369.391 1129.15 366.377 1127.56 363.363C1127.56 363.186 1127.38 363.186 1127.38 363.009C1127.56 362.477 1127.38 361.768 1126.67 361.768C1115.33 359.463 1101.68 358.4 1093.35 349.359C1083.6 338.9 1082.89 317.45 1093.7 307.522C1105.05 297.063 1123.3 298.481 1136.6 304.509C1149.36 310.181 1157.52 321.704 1156.1 336.063Z"
                        fill="#3C3C3B" fill-opacity="0.64" />
                    <path
                        d="M1107.17 328.972C1106.82 326.49 1104.87 324.363 1102.21 324.186C1100.61 324.008 1098.84 324.717 1097.78 325.958C1095.3 327.908 1094.59 331.808 1097.42 334.29C1099.37 335.886 1102.21 336.595 1104.51 335.354C1106.64 333.936 1107.7 331.454 1107.17 328.972Z"
                        fill="#3C3C3B" fill-opacity="0.64" />
                    <path
                        d="M1125.61 328.086C1124.9 327.377 1123.84 326.845 1122.77 327.022C1120.65 327.377 1118.87 329.327 1118.52 331.454C1117.99 333.759 1119.05 336.418 1121.35 337.481C1123.3 338.545 1125.96 338.368 1127.74 336.772C1130.57 334.113 1128.8 329.149 1125.61 328.086Z"
                        fill="#3C3C3B" fill-opacity="0.64" />
                    <path
                        d="M1144.93 330.567C1143.51 330.212 1142.1 330.567 1141.03 331.453C1140.15 331.808 1139.26 332.34 1138.73 333.226C1137.31 335.531 1138.37 338.899 1140.68 340.317C1143.34 341.912 1146.88 340.672 1148.12 338.012C1149.54 334.999 1148.12 331.453 1144.93 330.567Z"
                        fill="#3C3C3B" fill-opacity="0.64" />
                </g>
                <g clip-path="url(#clip2)">
                    <path
                        d="M1154.71 645.64C1147.93 628.273 1141.16 610.907 1134.38 593.54C1133.11 590.575 1130.14 589.728 1127.6 591.845C1108.54 606.671 1089.06 621.496 1070.42 636.745C1070.84 629.121 1071.69 621.92 1071.69 614.295C1071.69 612.177 1070 610.907 1068.3 610.907C1067.45 610.059 1066.18 610.059 1064.91 611.33C1045.85 629.968 1028.06 649.452 1009.85 668.937C1008.15 671.479 1009 675.291 1011.96 676.138C1040.77 683.339 1069.57 687.151 1099.22 687.998C1102.19 687.998 1104.73 684.186 1103.03 681.645C1098.8 675.714 1094.56 670.208 1089.48 665.548C1110.24 660.889 1130.99 655.806 1151.75 651.147C1153.86 650.3 1155.14 647.758 1154.71 645.64ZM1020.86 669.361C1035.26 653.688 1049.24 638.016 1062.79 621.92C1061.95 628.273 1061.52 635.051 1061.95 641.404C1061.95 642.252 1062.37 643.099 1062.79 643.522C1062.37 645.64 1065.34 648.605 1067.45 646.911C1088.21 632.086 1108.54 616.413 1128.45 600.741C1133.96 615.142 1139.46 629.121 1144.97 643.522C1123.79 648.182 1102.19 652.841 1081.01 657.5C1079.74 657.924 1079.31 658.348 1078.47 658.771C1075.93 660.042 1074.65 663.431 1077.2 665.548C1081.86 669.361 1086.09 673.597 1089.9 678.256C1067.03 677.832 1043.73 674.444 1020.86 669.361Z"
                        fill="#3C3C3B" fill-opacity="0.47" />
                </g>
                <g clip-path="url(#clip3)">
                    <path
                        d="M1035.79 420.471C1034.68 415.441 1027.69 416.28 1023.78 416.559C1023.78 412.088 1022.94 407.618 1020.43 404.544C1017.35 401.191 1012.32 400.353 1008.97 402.868C1007.29 398.397 1000.59 399.515 995.838 400.353C994.721 398.677 991.368 399.794 991.368 402.03C991.088 411.809 992.485 421.868 992.765 431.927C993.044 440.309 991.926 450.088 993.882 458.191C993.324 458.191 992.485 458.471 991.926 459.03C982.985 467.971 973.206 476.074 962.868 483.338C963.147 467.133 963.147 450.927 962.588 434.721C962.309 425.78 962.029 417.118 961.471 408.177C961.191 400.912 959.515 392.809 960.074 385.265C969.574 390.574 979.353 395.883 989.132 400.353C991.368 401.471 993.044 398.397 991.088 397C980.75 390.015 969.853 384.147 959.235 378C957.559 377.162 955.324 377.721 955.044 379.677C953.368 387.5 954.765 395.883 955.324 403.986C955.882 413.206 956.162 422.427 956.441 431.647C957 450.647 957 469.647 956.721 488.647C956.721 490.883 959.235 492.559 961.191 491.162C973.765 483.059 985.5 473.559 996.118 462.662C997.235 461.544 997.235 460.147 996.397 459.03C996.397 459.03 996.397 459.03 996.397 458.75C999.191 449.809 998.074 439.191 997.794 429.971C997.515 421.03 997.794 411.809 996.397 402.868C998.353 402.868 1000.31 402.868 1001.71 403.427C1005.06 404.824 1003.94 405.662 1003.94 409.294C1003.94 415.441 1004.22 421.868 1004.22 428.015L1004.5 446.736C1004.5 448.133 1005.34 454.28 1004.5 454.838C1005.06 454.28 999.471 454.28 998.912 454.28C996.397 454.559 995.559 458.191 998.353 459.03C1002.26 460.147 1008.13 461.265 1009.81 456.515C1010.37 456.515 1010.37 455.677 1010.09 455.677C1011.21 455.956 1012.04 457.353 1013.44 457.633C1014.56 457.912 1015.96 457.633 1017.07 457.074C1019.31 456.236 1020.71 454.838 1021.82 452.883C1023.78 449.25 1023.22 445.059 1023.22 441.147V440.868C1026.01 441.986 1028.81 442.265 1031.88 441.986C1032.72 441.986 1034.12 441.427 1034.12 440.309C1034.68 436.677 1034.68 433.324 1034.96 429.691C1035.79 427.736 1036.63 423.544 1035.79 420.471ZM1017.91 450.368C1016.24 453.721 1013.44 453.721 1010.65 453.721C1010.65 451.206 1010.09 448.412 1010.09 446.456C1010.09 441.147 1009.81 435.559 1009.81 430.25C1009.81 425.221 1009.53 420.471 1009.53 415.441C1009.53 413.486 1009.81 410.971 1009.81 408.456C1010.37 408.456 1011.21 408.177 1011.76 407.618C1013.72 408.736 1015.68 409.853 1017.63 410.971C1017.91 412.368 1018.19 414.044 1018.19 415.441C1018.19 417.118 1018.19 418.794 1018.19 420.471C1018.19 424.662 1018.19 429.133 1018.19 433.324C1018.19 437.236 1018.47 441.147 1018.47 445.059C1018.19 446.456 1018.75 448.971 1017.91 450.368ZM1023.78 438.633C1023.78 434.721 1023.78 430.53 1023.78 426.618C1023.78 425.221 1023.78 423.544 1023.78 421.868C1025.46 421.868 1027.41 421.588 1029.09 421.868C1031.88 422.147 1030.76 423.544 1030.76 426.338C1030.49 430.53 1030.21 434.441 1030.21 438.633C1027.97 438.912 1025.74 439.191 1023.78 438.633Z"
                        fill="#3C3C3B" fill-opacity="0.46" />
                    <path
                        d="M939.956 402.029C938 400.073 935.485 399.235 932.971 397.838C930.456 396.441 927.941 395.044 925.147 393.926C924.029 393.088 922.912 395.044 924.029 395.882C926.544 397.559 929.059 399.235 931.573 400.632C933.809 402.029 936.044 403.985 938.559 404.544C939.956 404.823 941.073 403.147 939.956 402.029Z"
                        fill="#3C3C3B" fill-opacity="0.46" />
                    <path
                        d="M936.324 416.559C934.088 415.441 931.853 415.721 929.618 415.721C926.824 415.721 924.309 415.441 921.515 415.441C919.559 415.441 919.838 417.956 921.515 418.236C924.029 418.515 926.544 418.794 929.059 419.074C931.294 419.353 933.809 419.912 936.044 419.353C937.162 419.074 937.721 417.397 936.324 416.559Z"
                        fill="#3C3C3B" fill-opacity="0.46" />
                    <path
                        d="M933.809 432.206C930.176 431.648 925.985 433.324 922.353 434.162C920.397 434.721 921.235 437.515 923.191 437.236C926.544 436.677 931.294 436.956 934.088 435.001C935.206 434.442 935.206 432.486 933.809 432.206Z"
                        fill="#3C3C3B" fill-opacity="0.46" />
                    <path
                        d="M938 449.53C934.926 449.251 931.574 451.206 928.779 452.324C925.706 453.442 922.632 454.28 919.838 455.956C919 456.236 918.721 457.353 919.559 458.192L919.838 458.471C921.515 459.868 926.824 457.074 928.5 456.515C931.853 455.398 936.324 455.118 939.118 452.603C940.515 451.206 939.397 449.53 938 449.53Z"
                        fill="#3C3C3B" fill-opacity="0.46" />
                </g>
                <g clip-path="url(#clip4)">
                    <path
                        d="M119.67 481.323C122.339 478.475 124.297 475.094 124.119 470.823C123.941 466.195 121.093 461.568 117.356 458.899C109.17 453.204 98.8475 457.119 93.3306 464.594C91.195 455.695 83.0085 449.111 73.3984 450C62.1865 451.246 50.0848 460.856 48.6611 472.424C43.856 467.441 34.9577 468.865 30.5085 474.026C26.5933 478.475 26.9492 485.06 30.5085 488.797C21.9662 490.043 13.7797 496.272 12.178 505.17C10.2204 516.382 21.2543 519.763 30.3306 519.407C26.0594 526.17 25.8814 537.382 31.9323 542.543C39.9408 549.306 49.9069 542.187 55.4238 535.246C53.6441 545.746 62.3645 555.89 73.7543 555C84.4323 554.111 90.6611 544.678 89.7713 535.068C95.8221 538.45 105.432 537.916 110.771 535.78C116.822 533.467 121.271 525.814 118.246 520.653C130.348 522.433 141.915 513 141.915 500.187C141.915 489.331 130.348 478.653 119.67 481.323ZM115.22 517.628C114.864 517.45 114.509 517.094 113.975 516.916C112.195 516.026 110.593 518.695 112.373 519.585C116.644 521.543 116.822 526.882 113.797 530.085C111.127 532.933 107.034 533.645 103.297 534C98.6696 534.178 91.017 534.356 88.3475 529.729C88.1696 529.195 87.9916 528.662 87.6357 528.128C86.9238 526.526 84.2543 527.594 84.7882 529.373C84.9662 529.907 85.1441 530.441 85.3221 530.797C89.0594 540.051 83.7204 550.907 73.2204 551.797C62.3645 552.687 55.6018 542.009 58.2713 531.865C58.4492 530.975 57.0255 530.085 56.4916 531.153C56.4916 531.331 56.3136 531.509 56.3136 531.687C55.9577 531.509 55.4238 531.509 55.0679 531.865C49.7289 537.026 41.1865 547.526 33.534 539.695C28.373 534.534 29.2628 523.5 34.4238 518.695C35.4916 517.628 34.4238 516.026 33.0001 516.382C28.5509 517.094 23.3899 517.628 19.2967 514.958C13.4238 511.399 14.3136 504.458 17.695 499.653C21.9662 493.602 29.4408 490.933 36.5594 491.823C38.1611 492 38.517 489.153 36.9153 488.975C28.7289 487.907 29.0848 478.297 34.7797 474.204C39.0509 471.178 44.9238 471.356 48.4831 475.272C48.4831 477.051 51.3306 477.051 51.3306 475.272C51.3306 464.95 60.9407 456.051 70.373 453.56C80.8729 450.712 90.8391 457.653 91.195 468.687C91.195 469.933 93.1526 470.645 93.6865 469.399C97.2458 461.924 106.5 456.051 114.687 460.678C118.068 462.636 120.559 466.017 121.271 469.755C122.339 475.272 118.958 479.365 115.398 482.924C115.042 483.28 115.042 483.636 115.22 483.992C115.22 484.704 115.754 485.416 116.644 485.238C127.322 483.636 138.89 488.263 138.356 500.899C138.178 513.356 126.61 519.941 115.22 517.628Z"
                        fill="black" fill-opacity="0.63" />
                </g>
                <g opacity="0.61" clip-path="url(#clip5)">
                    <path
                        d="M188.415 659.371C185.103 657.021 181.595 655.258 177.892 654.279C178.672 649.773 179.062 645.072 179.256 640.567C179.256 639.196 177.503 638.608 176.528 639.392C173.215 642.526 170.097 645.66 166.785 648.99C163.667 646.443 160.549 644.093 157.041 642.134C155.872 641.351 154.508 642.526 154.703 643.701C155.872 648.011 157.431 651.928 159.964 655.65C156.651 657.217 153.923 659.371 151.585 661.918C150.61 662.897 151.195 665.052 152.754 664.856C156.456 664.464 160.354 663.876 164.056 663.485C165.81 667.99 167.954 672.299 170.487 676.217C171.462 677.588 173.41 677 173.605 675.433C173.8 672.299 173.41 665.639 175.944 664.268C177.308 663.485 179.841 663.681 181.4 663.289C183.544 662.897 185.687 662.505 187.831 662.309C189.39 662.114 189.39 660.155 188.415 659.371ZM177.892 660.742C176.138 660.938 173.41 660.938 172.241 662.309C171.462 663.093 171.462 664.66 171.267 665.639C171.072 667.206 170.877 668.773 170.682 670.34C169.123 667.402 167.759 664.464 166.59 661.33C166.395 660.742 165.81 659.959 165.031 660.155L157.82 660.938C158.99 660.155 160.159 659.175 161.523 658.588C161.913 658.392 162.108 658 162.303 657.608C162.497 657.413 162.692 657.021 162.497 656.433C160.744 653.299 159.379 649.969 158.405 646.639C160.938 648.402 163.277 650.165 165.615 652.32C166.395 652.712 167.174 652.712 167.954 652.124C170.682 649.578 173.215 647.031 175.749 644.485C175.554 648.011 174.969 651.536 174.385 655.062C174.19 655.846 174.579 656.825 175.554 657.021C178.282 657.608 180.815 658.588 183.154 659.959C181.4 660.155 179.646 660.351 177.892 660.742Z"
                        fill="#3C3C3B" />
                </g>
                <g opacity="0.61" clip-path="url(#clip6)">
                    <path
                        d="M460.415 51.3708C457.103 49.0203 453.595 47.2574 449.892 46.2781C450.672 41.7729 451.062 37.0719 451.256 32.5667C451.256 31.1956 449.503 30.608 448.528 31.3915C445.215 34.5255 442.097 37.6595 438.785 40.9894C435.667 38.443 432.549 36.0925 429.041 34.1337C427.872 33.3502 426.508 34.5255 426.703 35.7007C427.872 40.01 429.431 43.9275 431.964 47.6492C428.651 49.2162 425.923 51.3708 423.585 53.9172C422.61 54.8966 423.195 57.0513 424.754 56.8554C428.456 56.4636 432.354 55.876 436.056 55.4842C437.81 59.9894 439.954 64.2987 442.487 68.2162C443.462 69.5873 445.41 68.9997 445.605 67.4327C445.8 64.2987 445.41 57.6389 447.944 56.2677C449.308 55.4842 451.841 55.6801 453.4 55.2884C455.544 54.8966 457.687 54.5049 459.831 54.309C461.39 54.1131 461.39 52.1543 460.415 51.3708ZM449.892 52.742C448.138 52.9379 445.41 52.9378 444.241 54.309C443.462 55.0925 443.462 56.6595 443.267 57.6389C443.072 59.2059 442.877 60.7729 442.682 62.3399C441.123 59.4018 439.759 56.4636 438.59 53.3296C438.395 52.742 437.81 51.9585 437.031 52.1543L429.82 52.9378C430.99 52.1543 432.159 51.175 433.523 50.5873C433.913 50.3915 434.108 49.9997 434.303 49.608C434.497 49.4121 434.692 49.0203 434.497 48.4327C432.744 45.2987 431.379 41.9688 430.405 38.6389C432.938 40.4018 435.277 42.1647 437.615 44.3193C438.395 44.711 439.174 44.711 439.954 44.1234C442.682 41.577 445.215 39.0306 447.749 36.4842C447.554 40.01 446.969 43.5358 446.385 47.0616C446.19 47.8451 446.579 48.8244 447.554 49.0203C450.282 49.608 452.815 50.5873 455.154 51.9585C453.4 52.1543 451.646 52.3502 449.892 52.742Z"
                        fill="#3C3C3B" />
                </g>
                <g opacity="0.61" clip-path="url(#clip7)">
                    <path
                        d="M1235.42 493.371C1232.1 491.021 1228.59 489.258 1224.89 488.279C1225.67 483.773 1226.06 479.072 1226.26 474.567C1226.26 473.196 1224.5 472.608 1223.53 473.392C1220.22 476.526 1217.1 479.66 1213.78 482.99C1210.67 480.443 1207.55 478.093 1204.04 476.134C1202.87 475.351 1201.51 476.526 1201.7 477.701C1202.87 482.011 1204.43 485.928 1206.96 489.65C1203.65 491.217 1200.92 493.371 1198.58 495.918C1197.61 496.897 1198.19 499.052 1199.75 498.856C1203.46 498.464 1207.35 497.876 1211.06 497.485C1212.81 501.99 1214.95 506.299 1217.49 510.217C1218.46 511.588 1220.41 511 1220.61 509.433C1220.8 506.299 1220.41 499.639 1222.94 498.268C1224.31 497.485 1226.84 497.681 1228.4 497.289C1230.54 496.897 1232.69 496.505 1234.83 496.309C1236.39 496.114 1236.39 494.155 1235.42 493.371ZM1224.89 494.742C1223.14 494.938 1220.41 494.938 1219.24 496.309C1218.46 497.093 1218.46 498.66 1218.27 499.639C1218.07 501.206 1217.88 502.773 1217.68 504.34C1216.12 501.402 1214.76 498.464 1213.59 495.33C1213.39 494.742 1212.81 493.959 1212.03 494.155L1204.82 494.938C1205.99 494.155 1207.16 493.175 1208.52 492.588C1208.91 492.392 1209.11 492 1209.3 491.608C1209.5 491.413 1209.69 491.021 1209.5 490.433C1207.74 487.299 1206.38 483.969 1205.41 480.639C1207.94 482.402 1210.28 484.165 1212.62 486.32C1213.39 486.712 1214.17 486.712 1214.95 486.124C1217.68 483.578 1220.22 481.031 1222.75 478.485C1222.55 482.011 1221.97 485.536 1221.38 489.062C1221.19 489.846 1221.58 490.825 1222.55 491.021C1225.28 491.608 1227.82 492.588 1230.15 493.959C1228.4 494.155 1226.65 494.351 1224.89 494.742Z"
                        fill="#3C3C3B" />
                </g>
                <g clip-path="url(#clip8)">
                    <path
                        d="M75.7206 111.368C62.0294 91.25 60.353 64.9853 71.8088 43.4706C72.9265 41.2353 70.9706 38.4412 68.4559 39C47.7794 44.0294 26.5441 45.1471 5.30884 41.7942C3.91178 41.7942 1.9559 42.353 1.67649 44.0294C-1.39704 62.1912 -0.279396 80.6324 5.30884 97.9559C9.77943 111.926 17.3235 130.647 32.4118 135.956C33.5294 136.235 34.3677 135.956 34.9265 135.397C35.2059 135.676 35.4853 135.676 35.4853 135.956C35.7647 136.235 36.603 136.235 36.8824 135.956C37.1618 135.676 37.1618 135.676 37.4412 135.397C37.7206 135.118 38 134.559 38 134.279C38.8383 134 39.6765 133.441 40.2353 133.162C41.9118 132.603 43.3088 131.765 44.7059 130.926C48.0588 129.25 51.4118 127.294 54.7647 125.618C61.1912 122.265 67.6177 118.632 74.0441 115.279C76 114.721 76.5588 112.765 75.7206 111.368ZM46.9412 124.5C43.8677 126.176 37.7206 128.412 35.2059 131.765C34.9265 131.206 34.3677 130.926 33.8088 130.647C20.1177 125.338 13.4118 104.941 9.77943 92.0883C5.86766 77.8383 5.02943 62.75 6.98531 48.2206C25.9853 50.7353 44.9853 50.1765 63.9853 46.2647C55.0441 67.5 56.7206 92.3677 69.0147 111.926C61.4706 116.118 54.2059 120.029 46.9412 124.5Z"
                        fill="#3C3C3B" fill-opacity="0.64" />
                    <path
                        d="M59.7941 108.015C50.5736 111.368 41.9118 116.677 32.9706 120.868C32.1324 121.147 32.6912 122.544 33.5294 122.265C42.4706 119.191 52.8089 115.559 60.353 109.971C61.4706 109.412 60.9118 107.456 59.7941 108.015Z"
                        fill="#3C3C3B" fill-opacity="0.64" />
                    <path
                        d="M52.8089 94.0448C48.0589 96.5595 43.5883 99.6331 38.5589 101.868C33.5295 104.104 28.5001 105.221 23.1912 106.339C22.0736 106.618 22.353 108.295 23.4706 108.015C34.0883 106.898 46.3824 103.265 54.2059 95.7213C55.3236 94.8831 53.9265 93.486 52.8089 94.0448Z"
                        fill="#3C3C3B" fill-opacity="0.64" />
                    <path
                        d="M52.25 85.6619C46.9412 86.7795 41.6324 89.0148 36.3235 90.4119C34.6471 90.9707 25.1471 94.0443 22.353 94.6031V94.3237V94.0443C22.353 93.7648 22.0735 93.4854 21.7941 93.7648C20.9559 93.7648 20.9559 94.0443 20.6765 94.6031C20.3971 94.8825 20.6765 95.1619 20.6765 95.4413C23.1912 98.2354 29.6177 95.1619 32.6912 94.3237C39.6765 92.6472 47.2206 91.2501 53.3677 87.8972C54.2059 87.059 53.3677 85.3825 52.25 85.6619Z"
                        fill="#3C3C3B" fill-opacity="0.64" />
                    <path
                        d="M52.5294 77.0005C46.6618 77.0005 40.5147 78.3975 34.6471 79.5152C27.9412 80.6328 21.2353 81.4711 14.8089 83.1475C13.9706 83.427 14.25 84.5446 15.0883 84.5446C21.7942 84.5446 28.5 83.427 35.2059 82.5887C41.0736 81.7505 47.2206 81.4711 53.0883 79.7946C54.2059 79.2358 54.2059 77.0005 52.5294 77.0005Z"
                        fill="#3C3C3B" fill-opacity="0.64" />
                    <path
                        d="M52.5294 65.264C43.8676 64.9845 34.9264 66.661 26.2647 67.4992C22.3529 67.7787 13.4117 66.661 10.6176 70.014C10.3382 70.2934 10.0588 70.5728 10.3382 71.1316C10.6176 71.9698 10.897 72.2492 11.4559 72.5287C11.7353 72.8081 12.2941 72.8081 12.5735 72.2492L12.8529 71.9698C13.4117 71.6904 13.1323 71.1316 12.8529 70.8522C13.9706 71.1316 15.3676 71.1316 15.647 71.1316C17.3235 71.1316 19.2794 70.8522 20.9559 70.8522C24.8676 70.5728 28.7794 70.2934 32.6911 70.014C39.397 69.4551 46.1029 69.4551 52.8088 68.3375C54.7647 68.0581 54.2058 65.5434 52.5294 65.264Z"
                        fill="#3C3C3B" fill-opacity="0.64" />
                </g>
                <g clip-path="url(#clip9)">
                    <path
                        d="M736.773 27.0463C717.045 20.0463 697.955 11.1372 679.818 0.637168C677.909 -0.317377 675.364 0.637168 674.727 2.54626C669.955 26.7281 662.636 56.319 636.545 65.5463C634.636 66.1826 633.364 68.4099 634.636 70.6372C643.227 85.5917 655.318 98.0008 669.636 107.228C670.909 108.183 672.182 107.864 673.136 107.228C673.455 107.864 673.773 108.183 674.727 108.183C690.636 108.183 707.182 92.5917 716.091 81.1372C727.545 66.5008 734.545 49.319 739 31.1826C739.636 29.2735 738.364 27.6826 736.773 27.0463ZM712.591 75.0917C707.5 81.7735 701.455 87.819 694.773 92.9099C688.409 97.6826 681.091 99.9099 674.727 104.364C674.727 103.41 674.409 102.137 673.136 101.501C660.727 93.2281 650.545 83.0463 642.591 70.6372C666.773 59.819 675.364 33.4099 680.455 8.9099C697 18.4554 713.864 26.4099 731.682 32.7735C727.864 47.7281 721.818 62.3644 712.591 75.0917Z"
                        fill="#3C3C3B" fill-opacity="0.59" />
                    <path
                        d="M680.455 85.2733C676.955 81.7733 671.545 80.1824 667.409 77.6369C662.955 74.7733 659.136 70.3187 654.364 68.0915C653.727 67.7733 652.773 68.4097 653.409 69.046C655.955 73.8187 660.727 77.3187 665.182 80.1824C669.318 83.046 674.409 87.1824 679.5 87.8187C680.773 87.8187 681.409 85.9096 680.455 85.2733Z"
                        fill="#3C3C3B" fill-opacity="0.59" />
                    <path
                        d="M692.545 78.9099C688.091 75.4099 683 73.1826 678.227 70.0008C672.5 66.1826 667.409 62.0462 662.318 57.5917C661.364 56.6372 659.773 58.2281 660.727 59.1826C665.182 63.6372 669.955 67.7735 675.045 71.5917C679.818 75.4099 685.227 79.8644 690.955 81.7735C692.545 82.0917 693.818 79.8644 692.545 78.9099Z"
                        fill="#3C3C3B" fill-opacity="0.59" />
                    <path
                        d="M705.909 69.6828C700.818 65.8646 694.773 63.3191 689.364 60.1373C683.955 56.6373 678.864 52.8191 673.773 49.001C672.818 48.3646 671.545 49.9555 672.5 50.5919C677.273 55.0464 682.364 58.8646 687.773 62.3646C692.864 65.8646 698.591 70.3191 704.636 72.2282C706.545 73.1828 707.182 70.6373 705.909 69.6828Z"
                        fill="#3C3C3B" fill-opacity="0.59" />
                    <path
                        d="M718.955 57.591C718.318 55.6819 718 55.6819 716.409 54.7274C713.545 52.8183 707.818 51.5456 704.636 49.9546C696.364 45.8183 687.773 41.0456 678.864 38.5001C677.909 38.1819 677.273 39.7728 678.227 40.4092C684.909 45.1819 692.864 48.6819 699.864 52.1819C703.364 54.091 706.864 56.0001 710.364 57.591C710.682 57.591 712.273 58.2274 713.864 58.8637C713.864 59.5001 714.182 60.1365 714.818 60.4546C716.091 61.091 716.727 61.091 718 60.4546C718.636 59.5001 719.273 58.5456 718.955 57.591Z"
                        fill="#3C3C3B" fill-opacity="0.59" />
                    <path
                        d="M722.455 42.9554C716.727 39.1372 709.727 36.91 703.364 34.3645C697 31.8191 690.955 28.9554 684.591 26.7281C683.636 26.41 676.318 24.5009 679.5 28.3191C679.5 28.6372 679.818 28.6372 680.136 28.6372H680.455C681.091 28.6372 681.091 28.0009 680.773 27.6827C682.364 28.3191 687.455 31.5009 688.727 32.1372C692.545 34.0463 696.682 35.9554 700.5 37.5463C707.182 40.7281 713.864 44.8645 721.182 46.4554C723.091 46.7736 724.045 44.2281 722.455 42.9554Z"
                        fill="#3C3C3B" fill-opacity="0.59" />
                </g>
                <defs>
                    <clipPath id="clip0">
                        <rect width="83.7" height="60.1" fill="white"
                            transform="translate(80.6009 223.345) rotate(96.0604)" />
                    </clipPath>
                    <clipPath id="clip1">
                        <rect width="78" height="82.0773" fill="white" transform="translate(1082 296)" />
                    </clipPath>
                    <clipPath id="clip2">
                        <rect width="145.712" height="97" fill="white" transform="translate(1009 591)" />
                    </clipPath>
                    <clipPath id="clip3">
                        <rect width="117.074" height="114" fill="white" transform="translate(919 378)" />
                    </clipPath>
                    <clipPath id="clip4">
                        <rect width="129.915" height="105" fill="white" transform="translate(12 450)" />
                    </clipPath>
                    <clipPath id="clip5">
                        <rect width="38" height="38" fill="white" transform="translate(151 639)" />
                    </clipPath>
                    <clipPath id="clip6">
                        <rect width="38" height="38" fill="white" transform="translate(423 31)" />
                    </clipPath>
                    <clipPath id="clip7">
                        <rect width="38" height="38" fill="white" transform="translate(1198 473)" />
                    </clipPath>
                    <clipPath id="clip8">
                        <rect width="76" height="97.5147" fill="white" transform="translate(0 39)" />
                    </clipPath>
                    <clipPath id="clip9">
                        <rect width="105" height="107.864" fill="white" transform="translate(634)" />
                    </clipPath>
                </defs>
            </svg>