<svg width="1194" height="684" viewBox="0 0 1194 684" fill="none" 
    xmlns="http://www.w3.org/2000/svg">
    <g opacity="0.61" clip-path="url(#clip0)">
        <path d="M1010.21 429.674C1010.21 429.515 1010.05 429.356 1009.89 429.356C1006.26 417.73 1002.46 406.264 999.138 394.479C1000.4 394.001 1001.35 393.205 1001.99 391.613C1003.88 385.402 1003.88 377.758 1004.2 371.387C1004.99 356.577 1004.2 341.766 1001.99 327.115C1001.83 326.478 1001.04 326 1000.4 326C968.456 326.956 936.666 328.07 904.719 329.185C903.928 329.185 903.453 329.822 903.453 330.459C901.714 349.729 900.29 369.158 900.923 388.587C900.923 389.383 902.188 389.383 902.188 388.587C903.453 369.636 904.086 350.684 905.826 331.733C936.983 330.778 968.139 329.981 999.138 329.026C1001.04 342.085 1001.83 355.143 1001.35 368.362C1001.19 371.706 1001.04 375.209 1000.72 378.554C1000.4 381.739 1000.56 385.72 999.613 388.746C998.189 393.364 994.394 392.409 990.281 392.727C986.96 392.887 983.481 393.046 980.159 393.205C954.064 394.001 927.809 393.205 901.714 390.976C901.397 390.976 901.239 390.976 901.081 391.135C900.923 390.976 900.606 390.976 900.448 391.294C896.653 396.549 893.964 402.601 891.275 408.494C888.745 413.59 886.056 418.845 884 424.419C883.684 425.215 884.474 425.693 885.265 425.693C885.107 426.011 885.265 426.489 885.423 426.648C885.107 428.082 884.791 429.674 884.791 431.108C884.791 431.745 885.423 432.063 885.898 431.904C885.423 432.222 885.582 433.178 886.372 433.178C906.775 433.815 927.335 433.496 947.895 433.974C968.456 434.611 988.858 436.204 1009.26 437.159C1009.73 437.159 1010.21 436.841 1010.37 436.363C1011.32 433.656 1011.16 432.063 1010.21 429.674ZM894.597 407.697C896.969 402.76 899.341 397.664 900.923 392.409C901.081 392.727 901.397 392.887 901.714 392.887C931.922 395.753 962.13 396.39 992.496 394.957C993.919 394.957 995.501 394.957 997.082 394.798C999.613 406.105 1003.09 417.73 1008 428.241C987.909 425.374 967.349 424.419 946.946 423.941C927.177 423.463 906.775 422.826 887.163 425.215C887.163 425.056 887.163 424.897 887.163 424.737C887.163 424.26 886.847 424.1 886.372 424.1C889.535 418.845 891.908 413.271 894.597 407.697ZM1001.19 434.133C998.506 433.974 995.817 433.815 992.97 433.656C988.225 433.337 983.481 433.019 978.578 432.859C968.298 432.382 958.176 432.063 947.895 431.745C927.493 431.108 906.775 430.471 886.372 431.745C886.214 431.745 886.214 431.745 886.056 431.745C886.214 431.585 886.214 431.585 886.372 431.426C886.847 429.993 886.847 428.4 887.005 426.967C906.933 427.604 926.861 426.33 946.788 426.967C967.191 427.445 987.435 429.515 1007.68 431.108C1008 431.108 1008.15 431.108 1008.31 430.948C1010.21 436.044 1003.41 434.133 1001.19 434.133Z" fill="black" />
        <path d="M996.608 348.295C996.608 347.499 996.608 346.703 996.608 346.066C996.608 342.403 996.766 338.581 995.501 335.077C995.184 334.44 994.71 334.281 994.077 334.44C993.919 334.281 993.919 334.122 993.603 334.122C990.756 332.848 987.909 332.37 985.062 332.211C985.062 332.211 984.904 332.211 984.904 332.052C984.43 331.733 983.797 331.892 983.323 332.211C981.266 332.211 979.369 332.529 977.313 332.689C970.195 333.326 962.92 333.963 955.803 334.281C949.635 334.6 943.309 334.759 937.141 334.759C936.983 334.759 936.824 334.759 936.508 334.759C928.126 334.759 919.902 334.759 911.519 334.918C910.729 334.918 910.729 336.192 911.519 336.192C911.677 336.192 911.836 336.192 911.994 336.192C911.994 336.192 911.994 336.351 911.994 336.511C911.519 336.033 910.57 336.351 910.412 337.148C909.463 353.71 907.882 370.113 905.826 386.516C905.351 386.676 905.351 387.313 905.826 387.472C905.984 387.79 906.458 387.79 906.616 387.631C921.325 388.268 936.034 388.746 950.742 389.224C963.553 389.542 976.364 390.338 989.174 390.338C989.807 390.816 990.44 390.657 990.914 390.338C992.021 390.338 993.128 390.338 994.235 390.338C994.393 390.338 994.394 390.338 994.552 390.338C994.868 390.338 995.184 390.338 995.501 390.338C996.924 390.338 996.924 388.268 995.501 388.109C996.45 379.031 996.608 369.795 996.608 360.717C996.608 357.054 996.608 353.232 996.608 349.569C996.608 348.932 996.766 348.614 996.608 348.295ZM973.042 386.994C973.042 386.994 972.884 386.994 973.042 386.994C966.716 378.713 959.283 371.706 951.691 364.699C946.156 358.965 940.778 353.232 935.243 347.499C948.528 360.717 961.655 373.776 974.94 386.994C974.308 386.994 973.675 386.994 973.042 386.994ZM923.697 386.357C921.958 383.65 920.06 380.943 918.32 378.235C920.692 380.943 922.907 383.65 925.279 386.357C924.804 386.357 924.172 386.357 923.697 386.357ZM911.994 336.988C913.417 339.536 914.841 342.085 916.58 344.473C915.315 343.359 914.05 342.085 912.785 340.97C912.468 340.651 912.152 340.651 911.836 340.651C911.836 339.536 911.994 338.262 911.994 336.988ZM911.361 345.747C911.361 344.792 911.519 343.836 911.519 342.881C914.524 346.544 917.529 350.206 920.692 353.869C918.004 351.162 915.315 348.455 912.626 345.747C912.31 345.27 911.836 345.429 911.361 345.747ZM911.203 347.34C918.478 355.143 925.437 363.265 932.08 371.547C925.279 364.38 918.636 357.373 911.836 350.206C911.519 349.888 911.203 349.888 911.045 349.888C911.203 348.932 911.203 348.136 911.203 347.34ZM910.887 351.958C915.473 357.373 919.902 362.947 924.488 368.361C920.218 363.902 915.79 359.602 911.519 355.143C911.203 354.825 910.887 354.825 910.729 354.825C910.729 354.029 910.729 353.073 910.887 351.958ZM911.203 358.965C910.887 358.647 910.57 358.647 910.096 358.806C910.096 358.169 910.254 357.691 910.254 357.054C912.943 360.399 915.631 363.743 918.32 367.087C915.948 364.539 913.575 361.832 911.203 358.965ZM910.096 360.717C911.994 363.425 913.892 365.973 915.79 368.68C914.05 366.61 912.31 364.699 910.57 362.628C910.412 362.31 910.096 362.31 909.78 362.31C909.938 361.832 909.938 361.195 910.096 360.717ZM910.412 366.291C910.096 365.973 909.78 365.973 909.463 366.132C909.463 365.495 909.621 365.017 909.621 364.38C910.887 366.132 912.152 367.884 913.417 369.635C912.31 368.521 911.361 367.406 910.412 366.291ZM909.305 367.565C911.677 371.228 914.05 374.732 916.422 378.394C914.366 376.165 912.152 373.776 910.096 371.547C909.463 370.91 908.514 371.706 908.989 372.343C910.412 374.891 911.994 377.439 913.575 379.828L913.417 379.668C913.101 379.35 912.785 378.872 912.31 378.713C911.203 377.757 910.254 376.802 909.147 375.846C908.831 375.528 908.356 375.687 908.198 376.006C908.514 373.298 908.989 370.432 909.305 367.565ZM908.198 376.643C908.514 377.28 908.989 377.917 909.305 378.554C908.514 378.872 908.04 379.509 907.565 380.305C907.724 379.031 907.882 377.757 908.04 376.483C908.198 376.483 908.198 376.643 908.198 376.643ZM913.575 386.198C912.785 386.198 912.152 386.198 911.361 386.198C911.836 386.039 912.152 385.72 912.468 385.561C912.785 385.72 913.101 386.039 913.575 386.198ZM915.315 385.879C914.841 385.083 914.366 384.287 913.892 383.491C914.05 383.013 914.05 382.535 914.05 382.217C915.315 383.491 916.58 384.605 917.846 385.879C918.478 386.516 919.269 385.561 918.795 384.924C916.897 382.694 915.315 380.305 913.733 377.917C916.264 380.783 918.795 383.65 921.483 386.357C919.427 386.357 917.529 386.357 915.473 386.357C915.315 386.039 915.315 386.039 915.315 385.879ZM927.019 385.561C925.753 383.65 924.33 381.898 923.065 379.987C924.963 382.057 926.702 384.287 928.6 386.357C928.126 386.357 927.651 386.357 927.177 386.357C927.177 386.039 927.177 385.72 927.019 385.561ZM930.656 385.879C927.968 382.057 925.279 378.394 922.432 374.572C926.07 378.554 929.865 382.535 933.661 386.516C932.712 386.516 931.763 386.516 930.814 386.516C930.814 386.198 930.656 386.039 930.656 385.879ZM935.559 385.561C931.289 380.146 927.019 374.891 922.748 369.476C927.968 374.891 933.345 380.146 938.564 385.561C939.513 386.516 940.778 385.083 939.988 384.128L931.131 373.298C935.243 377.757 939.355 382.057 943.467 386.516C940.936 386.516 938.406 386.516 935.717 386.516C935.875 386.198 935.717 385.879 935.559 385.561ZM946.156 386.357C941.727 380.305 937.141 374.413 932.396 368.521C938.406 374.572 944.416 380.624 950.426 386.676C949.002 386.676 947.579 386.676 946.314 386.516L946.156 386.357ZM952.007 385.242C942.36 375.209 933.029 365.017 924.014 354.506C934.768 364.858 944.89 375.687 954.854 386.835C953.905 386.835 952.798 386.835 951.849 386.835C952.324 386.357 952.482 385.72 952.007 385.242ZM957.385 386.516C947.105 370.91 931.131 360.08 919.902 345.27C933.187 359.125 946.472 372.98 959.757 386.835C958.966 386.835 958.176 386.835 957.543 386.835C957.385 386.676 957.385 386.676 957.385 386.516ZM935.401 336.511C936.192 337.785 936.824 338.74 937.615 339.855C936.508 338.74 935.243 337.625 934.136 336.351C934.452 336.511 934.927 336.511 935.401 336.511ZM931.131 336.988C938.406 345.27 945.681 353.551 952.956 361.832C944.416 353.392 936.034 344.792 927.493 336.351C928.6 336.351 929.707 336.351 930.814 336.351C930.973 336.67 930.973 336.829 931.131 336.988ZM922.748 337.944C928.917 345.27 935.243 352.595 941.411 359.921C933.819 351.958 926.07 343.996 918.478 336.192C919.902 336.192 921.325 336.351 922.748 336.351C922.432 336.67 922.274 337.466 922.748 337.944ZM916.58 337.466C919.743 341.129 922.907 344.633 926.07 348.295L914.208 335.874C914.999 335.874 915.631 335.874 916.422 335.874C916.106 336.511 916.106 336.988 916.58 337.466ZM961.655 385.561C957.859 381.102 954.063 376.802 950.11 372.343C954.696 377.12 959.441 382.057 964.027 386.835C963.237 386.835 962.446 386.835 961.655 386.835C961.971 386.516 962.129 385.879 961.655 385.561ZM967.507 386.835C962.129 380.465 956.752 374.254 951.533 367.884C957.543 374.254 963.553 380.465 969.563 386.835C968.93 386.994 968.298 386.835 967.507 386.835ZM977.945 386.676C969.879 377.439 961.813 368.202 953.747 358.965C963.237 368.361 972.884 377.757 982.374 387.153C980.95 387.153 979.527 387.153 978.103 386.994C978.103 386.994 977.945 386.835 977.945 386.676ZM989.965 387.472C986.486 383.65 983.006 379.987 979.527 376.165C983.323 379.987 987.276 383.65 991.23 387.472C990.756 387.472 990.44 387.472 989.965 387.472ZM991.863 355.303C992.97 356.417 995.184 354.984 994.235 353.551C992.179 350.525 989.965 347.499 987.909 344.314C989.965 346.066 992.021 347.977 994.077 349.729C994.235 349.888 994.394 350.047 994.552 350.047C994.552 353.869 994.393 357.532 994.235 361.195C991.072 356.895 987.751 352.595 984.43 348.295C986.96 350.684 989.332 352.914 991.863 355.303ZM992.179 363.106C992.812 363.743 993.603 363.425 994.235 362.947C994.235 364.062 994.235 365.336 994.235 366.45L990.914 363.425C986.486 359.125 982.215 354.666 978.103 349.888C982.69 354.347 987.435 358.806 992.179 363.106ZM964.186 337.148C965.293 338.74 966.558 340.333 967.823 341.925C965.767 340.014 963.553 337.944 961.497 336.033C962.446 336.033 963.237 335.874 964.186 335.874C963.869 336.192 963.869 336.67 964.186 337.148ZM988.7 365.336C990.123 366.61 991.389 367.884 992.812 369.158C993.286 369.476 993.761 369.635 994.077 369.476C994.077 370.591 994.077 371.547 994.077 372.661C985.853 364.699 977.629 356.736 970.195 347.977C976.364 353.71 982.532 359.443 988.7 365.336ZM993.286 375.528C993.445 375.687 993.761 375.846 993.919 375.846C993.919 377.439 993.919 378.872 993.761 380.465C993.761 380.305 993.603 380.146 993.445 380.146C986.486 372.184 979.527 364.38 972.568 356.417C979.527 362.788 986.327 369.158 993.286 375.528ZM952.64 337.785C956.12 341.766 959.599 345.747 963.078 349.569C958.65 345.11 954.222 340.811 949.951 336.351C950.742 336.351 951.691 336.351 952.482 336.351C952.166 336.67 952.324 337.307 952.64 337.785ZM991.705 382.217C992.496 383.013 993.445 382.535 993.919 381.739C993.919 383.172 993.919 384.605 993.919 386.198C989.174 380.783 984.43 375.528 979.843 370.113C983.639 374.095 987.593 378.076 991.705 382.217ZM992.812 341.448C993.286 341.766 993.761 341.925 994.394 341.766C994.552 342.881 994.552 343.996 994.552 345.27C993.128 343.199 991.705 341.288 990.281 339.218C991.072 339.855 991.863 340.651 992.812 341.448ZM993.445 335.874C993.603 336.192 993.603 336.67 993.603 336.988C993.128 336.511 992.654 336.033 992.021 335.555C992.179 335.555 992.496 335.714 992.654 335.714C992.97 336.033 993.128 335.874 993.445 335.874ZM983.164 334.6C984.271 336.192 985.537 337.944 986.644 339.536C984.904 338.103 983.323 336.829 981.583 335.396C980.318 334.44 978.103 335.714 979.21 337.148C980.634 339.218 982.057 341.288 983.481 343.359C980.634 340.651 977.629 337.785 974.782 335.077C977.629 334.918 980.318 334.6 983.164 334.6ZM972.252 335.396C972.093 335.714 971.935 336.192 972.41 336.67C975.889 341.448 979.527 346.066 983.006 350.844C977.629 345.747 972.252 340.811 966.716 335.714C968.456 335.555 970.354 335.396 972.252 335.396ZM957.701 336.033C959.599 338.74 961.497 341.448 963.553 344.155C960.706 341.448 957.859 338.899 955.012 336.192C955.961 336.192 956.752 336.192 957.701 336.033ZM947.263 336.351C947.105 336.829 947.105 337.307 947.579 337.944C955.171 346.544 962.762 354.984 970.354 363.584C961.339 354.825 952.482 346.225 943.467 337.466C942.36 336.511 940.936 337.625 941.411 338.74C940.62 337.944 939.988 337.148 939.197 336.351C941.727 336.351 944.574 336.351 947.263 336.351ZM907.249 382.854C907.407 383.968 907.724 384.924 908.672 385.561C909.305 386.039 910.096 385.242 909.463 384.765C909.78 385.242 910.096 385.561 910.412 386.039C910.412 386.039 910.412 386.039 910.57 386.198C909.305 386.198 908.04 386.198 906.775 386.198C906.933 385.083 907.091 383.968 907.249 382.854ZM984.588 387.153C984.746 386.835 984.904 386.357 984.746 386.039C985.22 386.516 985.695 386.835 986.011 387.313C985.537 387.313 985.062 387.313 984.588 387.153Z" fill="black" />
        <path d="M1001.35 423.941C999.771 415.341 997.082 405.945 992.97 398.301C992.812 397.983 992.337 397.824 992.021 397.983C991.863 397.664 991.547 397.346 991.072 397.346C989.332 397.505 987.435 397.824 985.695 397.983C985.379 397.824 985.062 397.983 984.904 398.142C983.006 398.301 980.95 398.62 979.052 398.779C978.894 397.983 977.629 398.142 977.629 398.938C967.665 399.894 957.543 400.372 947.421 400.372C932.87 400.212 918.32 398.62 903.928 396.868C903.77 396.231 902.663 396.072 902.504 396.868C900.29 405.149 898.076 412.475 893.806 419.96C893.489 420.597 894.28 421.075 894.755 420.597C896.02 418.845 897.285 416.934 898.392 415.023C898.392 415.341 898.55 415.66 899.025 415.66C901.239 415.819 903.453 415.819 905.667 415.819C905.351 416.934 904.877 418.049 904.56 419.164C901.714 419.641 898.709 420.119 895.862 420.756C895.229 420.915 895.387 422.03 896.02 422.03C913.101 420.119 930.182 419.164 947.421 419.96C953.431 420.278 959.599 420.756 965.609 421.393C965.609 421.552 965.609 421.552 965.609 421.712C965.767 422.508 966.874 422.349 967.032 421.552C977.629 422.667 988.384 423.941 998.98 425.374C1000.4 425.534 1000.4 423.304 998.98 423.145C996.45 422.826 993.919 422.508 991.389 422.189C991.072 420.278 990.756 418.367 990.281 416.456C992.179 416.456 994.077 416.456 995.975 416.297C996.45 416.297 996.766 415.978 996.766 415.66C997.873 418.686 998.98 421.552 1000.09 424.419C1000.4 424.897 1001.51 424.737 1001.35 423.941ZM991.389 399.416H991.547C991.705 400.212 992.021 400.849 992.179 401.646C990.44 401.646 988.858 401.805 987.118 401.964C986.96 401.327 986.802 400.69 986.644 400.053C988.225 399.894 989.807 399.575 991.389 399.416ZM985.695 404.671C986.011 405.945 986.328 407.379 986.644 408.653C984.746 408.653 982.848 408.494 980.95 408.494C980.792 407.538 980.634 406.582 980.476 405.468C982.215 405.149 983.955 404.99 985.695 404.671ZM984.588 400.372C984.746 401.009 984.904 401.646 985.062 402.123C983.323 402.283 981.583 402.442 979.843 402.76C979.685 402.123 979.527 401.486 979.527 401.009C981.267 400.69 983.006 400.531 984.588 400.372ZM977.945 405.627C978.103 406.582 978.262 407.379 978.42 408.334C976.996 408.334 975.573 408.334 974.149 408.175C973.991 407.379 973.991 406.742 973.833 405.945C975.257 405.945 976.68 405.786 977.945 405.627ZM977.629 401.168C977.629 401.805 977.629 402.442 977.787 403.079C976.364 403.238 974.94 403.397 973.517 403.557C973.359 402.92 973.359 402.283 973.201 401.646C974.624 401.327 976.047 401.327 977.629 401.168ZM971.461 401.646C971.461 402.283 971.461 402.92 971.461 403.557C971.144 403.557 970.828 403.557 970.67 403.557C968.772 403.716 966.874 403.716 964.976 403.716C964.818 403.238 964.66 402.601 964.502 402.123C964.502 402.123 964.502 401.964 964.344 401.964C966.716 401.964 969.088 401.805 971.461 401.646ZM942.834 402.283C942.676 402.76 942.518 403.238 942.36 403.716C940.778 403.716 939.197 403.557 937.457 403.557C937.457 403.079 937.457 402.601 937.299 402.283V402.123C939.039 402.123 940.936 402.283 942.834 402.283ZM937.299 405.627C938.722 405.627 940.146 405.786 941.569 405.786C941.411 406.423 941.253 407.06 941.095 407.697C939.671 407.697 938.406 407.697 936.983 407.697C937.141 407.06 937.299 406.423 937.299 405.627ZM930.024 401.486C932.08 401.646 934.294 401.805 936.35 401.964C936.192 401.964 936.192 402.123 936.192 402.283C936.034 402.76 935.875 403.079 935.717 403.557C933.661 403.397 931.605 403.397 929.549 403.238C929.707 402.601 929.866 402.123 930.024 401.486ZM935.243 405.627C935.085 406.264 935.085 407.06 934.927 407.697C932.712 407.697 930.498 407.697 928.126 407.697C928.442 406.901 928.6 406.105 928.917 405.308C931.131 405.468 933.187 405.468 935.243 405.627ZM922.59 400.849C924.646 401.009 926.544 401.327 928.6 401.486C928.284 402.123 928.126 402.601 927.809 403.238C925.912 403.079 923.856 403.079 921.958 402.92C922.116 402.123 922.274 401.486 922.59 400.849ZM927.019 405.308C926.702 406.105 926.386 406.901 926.228 407.697C924.33 407.697 922.274 407.697 920.376 407.697C920.692 406.742 921.009 405.945 921.325 404.99C923.223 404.99 925.121 405.149 927.019 405.308ZM920.06 402.76C917.529 402.601 914.841 402.601 912.31 402.442C912.626 401.486 913.101 400.531 913.417 399.735C913.417 399.575 913.417 399.575 913.417 399.575C915.948 399.894 918.478 400.372 921.009 400.69C920.692 401.327 920.376 402.123 920.06 402.76ZM910.254 407.857C910.729 406.582 911.203 405.468 911.677 404.194C914.208 404.353 916.897 404.671 919.427 404.831C919.111 405.786 918.795 406.742 918.478 407.697C915.631 407.697 912.943 407.697 910.254 407.857ZM917.687 409.768C917.213 411.042 916.738 412.475 916.264 413.749C913.417 413.749 910.57 413.749 907.724 413.908C908.356 412.475 908.989 411.042 909.463 409.608C912.31 409.608 914.999 409.768 917.687 409.768ZM903.77 397.824C906.458 398.301 909.147 398.779 911.836 399.257C911.361 400.372 911.045 401.327 910.57 402.442C908.356 402.442 906.142 402.442 903.77 402.442C903.137 402.442 903.137 403.397 903.77 403.557C905.826 403.716 907.882 403.875 909.938 404.194C909.463 405.468 908.989 406.742 908.514 408.016C906.142 408.175 903.77 408.175 901.397 408.494C902.663 404.99 903.453 401.327 903.77 397.824ZM899.025 414.067C898.867 414.067 898.709 414.067 898.709 414.227C899.658 412.634 900.448 410.882 901.081 409.131C903.295 409.29 905.668 409.449 907.882 409.449C907.407 410.882 906.775 412.316 906.3 413.908C903.77 413.908 901.397 413.908 899.025 414.067ZM914.999 417.73C911.836 418.049 908.831 418.367 905.667 418.845C906.142 417.73 906.616 416.775 907.091 415.66C909.938 415.66 912.785 415.819 915.79 415.819C915.315 416.456 915.157 417.093 914.999 417.73ZM923.539 417.093C921.167 417.252 918.636 417.412 916.264 417.571C916.58 416.934 916.738 416.456 917.055 415.819C919.427 415.819 921.641 415.819 924.014 415.819C923.697 416.297 923.697 416.615 923.539 417.093ZM917.846 413.749C918.478 412.475 918.953 411.042 919.427 409.768C921.483 409.768 923.381 409.768 925.437 409.768C925.121 411.042 924.646 412.475 924.33 413.749C922.274 413.749 920.06 413.749 917.846 413.749ZM932.712 416.934C930.024 416.934 927.177 416.934 924.488 417.093C924.646 416.775 924.804 416.297 924.963 415.978C927.651 415.978 930.34 415.978 933.029 415.978C932.87 416.138 932.712 416.456 932.712 416.934ZM925.753 413.749C926.228 412.475 926.861 411.042 927.335 409.768C929.707 409.768 932.08 409.768 934.452 409.768C934.136 411.201 933.819 412.475 933.345 413.749C930.973 413.749 928.442 413.749 925.753 413.749ZM939.039 416.934C937.299 416.934 935.559 416.934 933.978 416.934C934.136 416.615 934.294 416.297 934.452 415.978C936.034 415.978 937.773 415.978 939.355 415.978C939.197 416.138 939.039 416.615 939.039 416.934ZM935.243 413.908C935.717 412.634 936.192 411.201 936.666 409.927C937.932 409.927 939.355 409.927 940.62 409.927C940.304 411.36 939.988 412.634 939.671 414.067C938.248 413.908 936.666 413.908 935.243 413.908ZM948.054 417.252C945.523 417.093 942.993 416.934 940.462 416.934C940.62 416.615 940.62 416.138 940.778 415.819C942.993 415.819 945.207 415.819 947.579 415.819C947.737 415.819 948.054 415.819 948.212 415.819C948.212 416.297 948.054 416.775 948.054 417.252ZM948.686 410.564C948.686 411.679 948.528 412.793 948.37 413.908C948.054 413.908 947.737 413.908 947.421 413.908C945.365 413.908 943.309 413.908 941.253 413.908C941.569 412.475 942.044 411.201 942.36 409.768C943.783 409.768 945.049 409.768 946.472 409.768C947.263 409.768 947.895 409.768 948.686 409.768C948.686 410.086 948.686 410.405 948.686 410.564ZM948.686 407.857C947.895 407.857 947.263 407.857 946.472 407.857C945.207 407.857 943.941 407.857 942.834 407.857C942.993 407.219 943.151 406.582 943.309 405.945C945.207 405.945 946.946 406.105 948.844 406.105C948.686 406.582 948.686 407.219 948.686 407.857ZM949.002 402.92C949.002 403.238 948.844 403.557 948.844 403.875C948.686 403.875 948.528 403.875 948.37 403.875C946.788 403.875 945.049 403.875 943.467 403.716C943.467 403.238 943.625 402.92 943.625 402.442C943.625 402.283 943.625 402.283 943.625 402.283C950.268 402.442 956.752 402.442 963.237 402.123C963.237 402.283 963.078 402.283 963.078 402.442C963.078 402.92 963.078 403.397 963.078 403.875C961.022 403.875 959.125 403.875 957.068 404.034C956.91 403.716 956.91 403.397 956.752 403.079C956.436 402.442 955.645 402.601 955.645 403.238C955.645 403.557 955.645 403.875 955.645 404.034C953.905 404.034 952.166 404.034 950.426 404.034C950.426 403.716 950.268 403.397 950.268 403.079C949.951 402.442 949.161 402.442 949.002 402.92ZM956.12 409.927C956.12 410.405 956.278 410.882 956.278 411.36C956.436 412.156 956.594 412.953 956.594 413.749C954.38 413.749 952.166 413.749 949.951 413.749C950.11 412.475 950.268 411.042 950.426 409.768C952.482 409.927 954.38 409.927 956.12 409.927ZM950.584 406.105C952.166 406.105 953.905 406.105 955.645 406.264C955.645 406.901 955.803 407.379 955.803 408.016C954.064 408.016 952.324 408.016 950.584 408.016C950.742 407.219 950.584 406.742 950.584 406.105ZM949.477 417.412C949.635 416.934 949.635 416.456 949.793 415.978C952.166 415.978 954.696 415.978 957.068 416.138C957.227 416.775 957.227 417.412 957.385 418.208C954.696 417.73 952.166 417.571 949.477 417.412ZM957.543 406.264C959.441 406.264 961.339 406.264 963.237 406.264C963.237 406.901 963.395 407.379 963.395 408.016C961.497 408.016 959.599 408.016 957.701 408.016C957.701 407.379 957.543 406.742 957.543 406.264ZM957.859 410.245C957.859 410.086 957.859 410.086 957.859 409.927C959.757 409.927 961.655 409.927 963.553 410.086C963.711 411.36 963.869 412.634 964.186 413.908C962.13 413.908 960.232 413.908 958.176 413.908C958.017 412.634 958.017 411.36 957.859 410.245ZM958.492 418.049C958.492 417.412 958.334 416.615 958.334 415.978C960.39 415.978 962.446 415.978 964.66 416.138C964.818 417.093 964.976 417.89 965.134 418.686C962.92 418.527 960.706 418.208 958.492 418.049ZM965.451 406.264C967.507 406.264 969.563 406.264 971.461 406.105C971.461 406.742 971.619 407.538 971.619 408.175C969.563 408.175 967.665 408.175 965.609 408.016C965.767 407.538 965.609 406.901 965.451 406.264ZM966.083 410.086C968.139 410.086 970.037 410.086 972.093 410.245C972.252 411.519 972.568 412.634 972.884 413.749C970.828 413.749 968.614 413.749 966.558 413.749C966.4 412.634 966.242 411.36 966.083 410.086ZM966.874 418.845C966.874 417.89 966.716 417.093 966.716 416.138C968.93 416.138 971.303 416.138 973.517 416.138C973.833 417.412 974.149 418.527 974.624 419.641C972.093 419.482 969.405 419.164 966.874 418.845ZM974.466 410.245C975.889 410.245 977.313 410.245 978.736 410.245C978.894 411.36 979.21 412.634 979.527 413.749C978.103 413.749 976.522 413.749 975.098 413.749C974.94 412.634 974.624 411.36 974.466 410.245ZM976.205 419.96C975.889 418.686 975.573 417.412 975.415 416.297C976.996 416.297 978.578 416.297 980.001 416.297C980.318 417.73 980.792 419.164 981.108 420.597C979.685 420.278 977.945 420.119 976.205 419.96ZM981.108 410.405C983.006 410.405 985.062 410.405 986.96 410.405C987.276 411.519 987.593 412.793 987.909 413.908C985.853 413.908 983.639 413.908 981.583 413.908C981.583 412.634 981.267 411.519 981.108 410.405ZM982.848 420.756C982.532 419.323 982.374 417.73 982.057 416.297C984.271 416.297 986.486 416.297 988.7 416.297C989.174 418.208 989.807 419.96 990.281 421.712C987.751 421.393 985.379 421.075 982.848 420.756ZM995.975 414.067C993.919 414.067 991.863 413.908 989.807 413.908C989.491 412.793 989.333 411.519 989.016 410.405C989.965 410.405 990.914 410.405 991.863 410.405C992.97 410.405 992.97 408.812 991.863 408.653C990.756 408.653 989.807 408.653 988.7 408.494C988.384 407.219 988.067 405.627 987.751 404.194C989.333 403.875 991.072 403.397 992.654 402.92C993.761 406.742 995.184 410.405 996.45 414.227C996.291 414.067 996.133 414.067 995.975 414.067Z" fill="black" />
    </g>
    <g opacity="0.61" clip-path="url(#clip1)">
        <path d="M881.2 486.2C879.8 496.4 874 505.8 865.1 511C856.9 515.7 842.1 518.6 835.2 510.2C834.8 509.7 834.5 509.2 834.2 508.6C836 508.5 837.8 508.1 839.6 507.4C843.7 505.7 847.9 500.7 844.4 496.3C841.1 492.1 834.6 494.6 832 498.3C830.4 500.5 830 503.1 830.4 505.6C821.4 504.4 813.2 498.2 808.2 490.9C805.3 486.7 803.3 481.9 802.3 476.9C801.3 471.6 800.9 464.3 804.9 460.1C806 459 804.3 457.2 803.1 458.4C798.7 462.7 798.6 469.6 799.3 475.3C800.2 481.7 802.7 487.8 806.4 493C811.7 500.3 821.4 507.9 831.2 508.6C832 510.6 833.4 512.4 835 513.7C840.1 518 847.4 518.6 853.7 517.7C869.7 515.5 881.7 502.3 882.7 486.4C882.7 485.6 881.3 485.4 881.2 486.2ZM839.6 496.7C844.5 496.9 843 502.4 840.1 504.2C838 505.4 835.6 505.9 833.2 505.8C832.3 501.4 834.1 496.4 839.6 496.7Z" fill="black" />
    </g>
    <g opacity="0.61" clip-path="url(#clip2)">
        <path d="M58.3379 389.685C68.3874 391.922 77.2765 398.479 81.7239 407.778C85.7308 416.338 87.3989 431.327 78.4579 437.51C77.9265 437.867 77.4035 438.125 76.7807 438.374C76.8297 436.572 76.5797 434.745 76.0307 432.893C74.675 428.667 70.0389 424.068 65.3649 427.193C60.9068 430.135 62.8616 436.819 66.3343 439.716C68.3947 441.492 70.9527 442.106 73.4772 441.913C71.5382 450.784 64.6824 458.444 56.9945 462.824C52.5694 465.367 47.6206 466.964 42.5551 467.548C37.1906 468.107 29.8825 467.903 26.0271 463.569C25.0217 462.382 23.0875 463.928 24.1843 465.223C28.1064 469.963 34.9745 470.632 40.7129 470.405C47.1653 470.037 53.4509 468.049 58.9387 464.791C66.6513 460.112 75.0263 451.072 76.533 441.364C78.5923 440.732 80.5017 439.485 81.9294 437.998C86.6358 433.27 87.8365 426.045 87.4597 419.692C86.5883 403.565 74.4242 390.516 58.661 388.207C57.8638 388.141 57.5489 389.519 58.3379 389.685ZM65.3672 432.01C65.9711 427.143 71.3285 429.092 72.8829 432.131C73.9054 434.323 74.2056 436.756 73.9077 439.139C69.4485 439.673 64.6142 437.466 65.3672 432.01Z" fill="black" />
    </g>
    <g opacity="0.61" clip-path="url(#clip3)">
        <path d="M314.88 300.109C304.885 297.639 296.15 290.879 291.918 281.48C288.11 272.83 286.789 257.806 295.871 251.832C296.41 251.487 296.939 251.241 297.567 251.006C297.477 252.807 297.684 254.639 298.191 256.503C299.448 260.759 303.977 265.464 308.722 262.448C313.247 259.61 311.447 252.882 308.042 249.906C306.023 248.083 303.48 247.41 300.952 247.544C303.095 238.721 310.126 231.222 317.913 227.02C322.396 224.58 327.38 223.098 332.458 222.631C337.834 222.196 345.135 222.569 348.89 226.99C349.867 228.2 351.837 226.7 350.77 225.38C346.959 220.551 340.108 219.723 334.366 219.817C327.907 220.036 321.577 221.878 316.015 225.009C308.196 229.508 299.615 238.352 297.884 248.023C295.811 248.607 293.873 249.81 292.411 251.263C287.597 255.881 286.23 263.077 286.459 269.437C286.958 285.579 298.817 298.906 314.523 301.579C315.318 301.663 315.665 300.292 314.88 300.109ZM308.831 257.632C308.115 262.484 302.804 260.412 301.32 257.338C300.348 255.123 300.104 252.683 300.457 250.307C304.928 249.877 309.71 252.195 308.831 257.632Z" fill="black" />
    </g>
    <g opacity="0.61" clip-path="url(#clip4)">
        <path d="M283.344 600.506C277.452 595.297 269.82 592.205 261.019 592.957C247.772 593.902 237.517 603.142 226.864 610.071C220.386 614.388 212.313 619.158 204.239 618.42C196.164 617.682 190.891 610.854 186.269 604.804C194.136 602.41 200.84 595.48 203.914 587.619C209.681 573.538 206.588 556.733 200.833 543.036C195.666 530.83 179.538 513.91 165.515 525.201C165.386 525.309 165.257 525.417 165.236 525.654C159.812 528.87 157.676 534.183 156.537 540.424C154.976 548.783 154.323 557.703 154.661 566.235C155.104 579.087 158.724 598.096 172.108 603.869C174.421 604.799 176.646 605.361 178.783 605.557C180.118 615.018 186.992 622.71 195.77 626.386C205.931 630.667 216.106 627.886 225.081 622.36C235.714 615.669 245.292 604.571 258.275 602.525C266.277 601.34 274.729 604.627 279.548 611.174C284.909 618.369 284.535 626.836 281.59 634.589L281.569 634.826C281.073 635.021 280.795 635.474 280.862 636.079C281.431 637.807 283.228 639.169 284.998 639.45C285.948 639.537 287.027 639.516 288.147 639.02C288.71 639.43 289.423 639.495 289.851 638.696C296.832 625.805 293.466 610.77 284.212 601.543C284.253 601.068 283.927 600.679 283.344 600.506ZM229.611 611.519C229.59 611.757 229.807 612.016 230.044 612.038C229.311 612.21 228.578 612.383 227.974 612.447C228.599 612.145 229.223 611.843 229.611 611.519ZM224.79 614.671C224.898 614.8 224.898 614.8 225.136 614.822C225.373 614.844 225.59 615.103 225.828 615.125C225.095 615.297 224.253 615.34 223.649 615.404C223.907 615.189 224.294 614.865 224.79 614.671ZM203.842 621.616C204.317 621.66 204.596 621.206 204.617 620.969C205.329 621.034 206.042 621.099 206.775 620.926C207.141 620.84 207.616 620.884 207.854 620.905C207.833 621.143 207.812 621.38 208.029 621.64C206.95 621.661 206 621.574 204.921 621.595C204.446 621.552 204.385 622.264 204.86 622.308C206.027 622.654 207.214 622.763 208.401 622.871C208.164 622.849 207.926 622.828 207.689 622.806C204.622 622.286 201.447 621.637 198.272 620.987C200.172 621.161 202.072 621.335 203.842 621.616ZM194.001 616.406C191.946 615.261 189.653 614.093 187.469 613.056C188.657 613.164 189.844 613.273 191.011 613.619C191.879 614.656 192.875 615.585 194.001 616.406ZM181.05 605.644C182.258 605.515 183.466 605.386 184.565 605.127C184.782 605.387 184.978 605.883 185.304 606.272C183.899 605.905 182.475 605.774 181.05 605.644ZM194.218 616.666C194.889 617.206 195.452 617.617 196.252 618.049C195.431 617.854 194.848 617.681 194.027 617.486C194.285 617.271 194.435 616.925 194.218 616.666ZM157.986 551.333C158.706 543.017 159.245 532.65 165.846 526.907C166.083 526.929 166.321 526.951 166.687 526.864C169.186 525.656 171.514 525.031 173.801 524.88C173.305 525.075 173.027 525.528 173.094 526.133C175.276 536.869 176.725 547.777 179.165 558.297C179.165 558.297 179.036 558.405 178.928 558.276C172.073 560.044 165 561.552 158.037 563.191C157.908 563.299 157.67 563.277 157.541 563.385C157.416 559.303 157.636 555.372 157.986 551.333ZM167.025 596.221C161.928 590.127 159.54 581.767 158.298 573.991C157.962 570.967 157.625 567.943 157.526 564.94C157.635 565.07 157.98 565.221 158.238 565.005C165.615 564.123 173.054 562.528 180.384 560.803C186.982 559.251 194.054 557.742 200.279 554.959C201.528 554.354 200.98 552.389 199.514 552.734C193.067 553.94 186.774 556.119 180.523 557.823C179.895 547.109 177.733 536.136 175.293 525.615C175.097 525.119 174.771 524.73 174.296 524.686C188.86 523.742 197.801 540.723 201.42 554.225C205.41 568.957 205.582 589.088 191.445 598.931C183.677 604.328 173.078 603.718 167.025 596.221ZM180.539 607.393C181.685 607.977 182.961 608.453 184.107 609.037C183.632 608.993 183.157 608.95 182.811 608.798C181.861 608.712 181.629 610.007 182.43 610.44C183.122 610.743 183.813 611.045 184.397 611.218C184.159 611.197 183.922 611.175 183.684 611.153C183.209 611.11 183.06 611.455 182.91 611.801C182.063 610.526 181.237 609.014 180.539 607.393ZM183.649 612.946C185.487 613.832 187.217 614.589 189.055 615.475C188.105 615.389 186.918 615.28 185.947 615.431C185.947 615.431 185.818 615.539 185.71 615.409C184.821 614.61 184.171 613.832 183.649 612.946ZM188.441 618.413C187.879 618.002 187.553 617.613 187.119 617.095C189.453 617.787 191.916 618.371 194.25 619.063C192.35 618.89 190.341 618.586 188.441 618.413ZM194.782 622.584C195.02 622.606 195.366 622.757 195.603 622.779C195.366 622.757 195.237 622.865 195.128 622.736C193.874 622.022 192.619 621.309 191.493 620.488C192.552 620.704 193.481 621.028 194.539 621.245C194.132 621.806 194.199 622.411 194.782 622.584ZM206.492 625.57C203.642 625.31 201.051 624.833 198.5 623.882C199.341 623.839 200.054 623.904 200.787 623.732C203.27 624.078 205.645 624.295 208.149 624.405C209.099 624.491 210.049 624.578 211.128 624.557C211.603 624.6 211.949 624.752 212.315 624.666C210.096 625.421 208.284 625.614 206.492 625.57ZM215.01 623.954C214.664 623.803 214.426 623.781 214.297 623.889C214.318 623.651 214.318 623.651 214.209 623.522C214.684 623.565 215.397 623.63 215.872 623.674C215.614 623.889 215.376 623.868 215.01 623.954ZM218.608 622.487C218.499 622.357 218.391 622.227 218.153 622.206C216.728 622.076 215.195 621.816 213.791 621.448C216.078 621.298 218.236 621.255 220.373 621.451C219.857 621.883 219.341 622.314 218.608 622.487ZM220.139 617.239L220.248 617.368C220.356 617.498 220.594 617.52 220.81 617.779C220.206 617.844 219.494 617.778 218.761 617.951C219.148 617.627 219.644 617.433 220.139 617.239ZM222.484 620.566C222.505 620.329 222.288 620.069 221.942 619.918L220.3 619.528C221.616 619.529 222.824 619.4 224.249 619.53C223.496 619.94 223 620.134 222.484 620.566ZM225.023 618.883C225.173 618.537 225.085 618.17 224.631 617.889C224.176 617.608 223.722 617.327 223.376 617.175C225.08 616.852 226.892 616.659 228.466 616.443C227.434 617.307 226.293 618.041 225.023 618.883ZM229.22 616.033C229.369 615.688 229.41 615.213 228.956 614.932C228.502 614.651 228.047 614.37 227.939 614.24C229.534 613.787 231 613.442 232.595 612.989C233.328 612.817 233.41 611.866 232.718 611.564C232.61 611.434 232.373 611.412 232.373 611.412C233.601 611.046 234.938 610.809 236.275 610.572C233.844 612.385 231.651 614.22 229.22 616.033ZM236.92 610.032C237.07 609.686 236.874 609.19 236.399 609.146C236.29 609.017 236.161 609.124 236.053 608.995C236.894 608.952 237.627 608.78 238.469 608.737C238.19 609.19 237.545 609.73 236.92 610.032ZM234.968 607.698C235.613 607.159 236.238 606.857 236.883 606.317C236.971 606.684 237.188 606.943 237.425 606.965C237.663 606.987 237.88 607.246 238.117 607.268C237.147 607.419 236.176 607.569 234.968 607.698ZM238.153 605.475C238.906 605.065 239.68 604.417 240.434 604.007C240.413 604.245 240.63 604.504 240.976 604.656C241.431 604.937 241.906 604.98 242.36 605.261C240.915 605.368 239.598 605.368 238.153 605.475ZM241.941 603.187C242.824 602.669 243.577 602.259 244.46 601.741L244.568 601.871C245.152 602.044 245.715 602.454 246.298 602.628C244.853 602.735 243.278 602.95 241.941 603.187ZM249.081 602.283C248.626 602.002 248.28 601.851 247.697 601.678C248.776 601.657 249.984 601.528 251.063 601.506C250.567 601.701 249.814 602.111 249.081 602.283ZM247.237 600.079C247.861 599.777 248.615 599.367 249.24 599.065C249.565 599.454 249.911 599.605 250.128 599.864C249.157 600.015 248.316 600.058 247.237 600.079ZM252.579 597.814C254.304 597.253 256.028 596.692 257.86 596.261C257.819 596.736 258.124 597.362 258.707 597.536C260.587 597.947 262.466 598.358 264.474 598.661C260.308 598.4 256.379 598.161 252.579 597.814ZM285.029 605.928C283.407 605.301 281.895 604.803 280.144 604.284C280.273 604.176 280.382 604.306 280.511 604.198C281.461 604.285 281.951 602.773 280.892 602.556C280.546 602.405 280.18 602.491 279.834 602.34C280.309 602.383 281.021 602.449 281.496 602.492C282.839 603.572 283.944 604.631 285.029 605.928ZM289.967 615.239C288.712 614.526 284.107 612.429 286.713 611.35C287.338 611.048 287.291 610.206 286.599 609.903C284.849 609.384 283.248 608.519 281.648 607.654C282.856 607.525 283.935 607.504 285.143 607.375C285.509 607.289 285.767 607.073 285.808 606.598C287.482 609.385 289.027 612.28 289.967 615.239ZM291.059 623.361C289.784 622.886 288.638 622.302 287.254 621.696C287.987 621.524 288.482 621.33 289.215 621.157C289.69 621.201 290.098 620.639 289.902 620.142C288.967 618.5 285.507 616.987 289.735 616.535C289.973 616.557 290.102 616.449 289.993 616.319C290.758 618.544 291.027 620.964 291.059 623.361ZM291.009 626.709C290.317 626.406 289.625 626.104 288.933 625.801C289.578 625.261 290.332 624.851 291.065 624.679C291.003 625.392 290.941 626.104 291.009 626.709ZM289.312 633.858C288.858 633.577 288.512 633.426 288.058 633.145C288.682 632.842 289.178 632.648 289.782 632.584C289.632 632.929 289.462 633.512 289.312 633.858ZM290.334 630.359C289.75 630.186 289.296 629.905 288.95 629.754C289.466 629.322 290.09 629.02 290.715 628.718C290.545 629.301 290.504 629.776 290.334 630.359ZM282.521 610.009C283.213 610.312 283.796 610.485 284.488 610.787C284.23 611.003 283.972 611.219 283.694 611.673C283.26 611.154 282.826 610.636 282.521 610.009ZM278.705 605.709C278.596 605.579 278.488 605.45 278.25 605.428C278.942 605.731 279.763 605.925 280.455 606.228C279.98 606.185 279.613 606.271 279.138 606.228C279.03 606.098 278.921 605.968 278.705 605.709ZM284.479 613.66C285.388 614.222 286.534 614.806 287.443 615.368C286.71 615.54 285.868 615.583 285.373 615.777C285.197 615.043 284.892 614.416 284.479 613.66ZM286.784 622.971C287.476 623.273 288.277 623.706 289.098 623.9C288.344 624.31 287.59 624.72 286.816 625.368C286.878 624.655 286.831 623.813 286.784 622.971ZM271.81 598.254C272.393 598.427 272.93 597.758 272.971 597.283C274.484 597.78 275.868 598.386 277.231 599.228C274.639 598.752 272.177 598.168 269.585 597.692C270.277 597.994 270.989 598.059 271.81 598.254ZM275.797 601.971C275.518 602.424 275.694 603.159 276.277 603.332C276.148 603.44 276.019 603.548 275.89 603.656C274.765 602.835 273.618 602.251 272.472 601.667C273.659 601.776 274.738 601.755 275.797 601.971ZM286.82 636.384C286.324 636.578 285.829 636.772 285.354 636.729C284.641 636.664 283.82 636.469 283.258 636.058C283.387 635.95 283.753 635.864 283.774 635.627C285.337 632.776 286.317 629.753 286.713 626.556C286.822 626.686 286.93 626.815 287.039 626.945C287.731 627.248 288.314 627.421 288.877 627.831C288.123 628.241 287.37 628.652 286.725 629.191C286.337 629.515 286.276 630.228 286.839 630.638C287.293 630.919 287.747 631.2 288.202 631.481C287.34 631.762 286.586 632.172 285.703 632.69C285.079 632.992 285.492 633.748 285.947 634.029C286.293 634.18 286.638 634.332 286.984 634.483C286.855 634.591 286.726 634.699 286.835 634.829C286.855 634.591 286.618 634.569 286.38 634.548C285.885 634.742 285.518 634.828 285.023 635.022C284.419 635.087 284.574 636.059 285.178 635.994C286.148 635.844 286.99 635.801 287.96 635.65C287.594 635.736 287.315 636.19 286.82 636.384Z" fill="black" />
    </g>
    <g opacity="0.61" clip-path="url(#clip5)">
        <path d="M979.654 174.457C979.776 174.213 979.898 174.091 980.143 173.847C980.633 173.236 980.266 172.503 979.776 172.259C980.021 172.259 980.266 172.137 980.388 171.771C982.591 163.833 975.859 155.285 969.495 151.377C967.169 149.912 956.276 145.149 951.992 147.103C948.198 135.624 937.794 126.832 925.799 125C924.82 124.878 924.453 125.611 924.576 126.343C923.964 126.71 923.474 127.198 922.862 127.687C916.62 124.512 912.336 135.258 909.766 139.043C904.258 147.103 897.036 153.575 892.141 162.123C890.917 164.199 889.693 166.398 888.591 168.596C888.102 169.573 886.878 171.038 887.122 172.259C887.612 174.457 891.529 174.579 893.242 174.946C893.365 174.946 893.609 175.068 893.977 175.068C894.099 175.19 894.221 175.312 894.221 175.434C894.589 175.801 895.078 175.801 895.323 175.434C904.503 177.51 913.927 179.342 921.026 185.936C921.271 186.18 921.638 186.18 921.883 186.058C934.857 190.088 944.526 200.224 945.383 214.145C945.383 214.756 946.117 215.122 946.729 215C950.891 213.412 953.583 209.993 956.643 206.818C960.805 202.422 965.089 198.026 969.372 193.63C973.289 189.478 984.917 181.052 979.654 174.457ZM962.029 198.636C962.273 197.537 962.763 196.438 963.375 195.461C963.497 195.95 963.62 196.438 963.742 196.927C963.13 197.537 962.641 198.148 962.029 198.636ZM941.466 197.049C941.589 196.805 941.711 196.438 941.833 196.194C942.568 197.659 943.18 199.125 943.669 200.59C943.057 199.369 942.323 198.148 941.466 197.049ZM945.628 201.811C945.138 200.102 944.404 198.392 943.669 196.682C944.771 198.27 945.75 199.858 946.484 201.567C946.24 201.567 945.872 201.567 945.628 201.811ZM941.221 193.874C941.221 193.874 941.099 193.996 941.099 194.118C940.977 194.24 940.977 194.362 940.854 194.606C940.732 194.118 940.487 193.63 940.365 193.263C940.487 193.385 940.609 193.507 940.732 193.63C940.854 193.63 941.099 193.752 941.221 193.874ZM938.406 192.897C938.406 192.775 938.529 192.653 938.529 192.531C938.896 193.141 939.141 193.752 939.385 194.484C939.018 193.996 938.651 193.63 938.161 193.263C938.284 193.141 938.284 193.019 938.406 192.897ZM960.56 199.003C960.56 199.125 960.682 199.247 960.682 199.247C960.805 199.491 960.927 199.613 961.172 199.613C960.438 200.346 959.826 201.079 959.091 201.689C959.581 200.834 960.07 199.858 960.56 199.003ZM965.456 195.217C965.945 193.385 966.924 191.065 967.414 192.286C967.536 192.531 967.659 192.653 967.904 192.653L965.456 195.217ZM967.536 190.088C968.271 189.111 969.005 188.134 969.74 187.157C969.25 188.379 968.638 189.478 968.026 190.699C967.904 190.577 967.781 190.455 967.536 190.088ZM970.964 186.18C970.841 186.058 970.719 186.058 970.719 186.058C971.331 185.326 971.943 184.471 972.555 183.738C972.188 184.715 971.943 185.692 971.576 186.669C971.453 186.547 971.208 186.425 970.964 186.18ZM973.779 183.25C973.656 183.005 973.411 182.883 973.167 182.883C973.779 182.151 974.268 181.418 974.88 180.685C974.513 181.662 974.268 182.639 974.023 183.616C973.901 183.494 973.779 183.372 973.779 183.25ZM974.635 185.692C975.003 184.471 975.492 183.372 975.859 182.151C975.982 182.761 976.227 183.25 976.349 183.86C975.859 184.471 975.247 185.081 974.635 185.692ZM978.797 176.411C978.43 176.411 977.94 176.655 977.818 177.144C977.573 178.365 977.328 179.586 977.083 180.807C976.961 180.319 976.716 179.83 976.594 179.464C976.471 179.22 976.349 179.098 976.104 178.976C976.839 177.999 977.695 176.9 978.43 175.923C978.552 176.167 978.674 176.289 978.797 176.411ZM896.057 161.024C896.302 161.635 896.547 162.246 896.792 162.856C896.914 163.345 897.648 163.467 897.648 162.856C897.648 161.391 897.893 160.047 898.016 158.582C898.138 159.071 898.26 159.559 898.383 160.047C898.383 160.658 899.362 160.658 899.484 160.047C899.729 158.704 900.096 157.361 900.341 156.14C900.586 156.75 900.831 157.483 900.953 158.094C899.24 160.658 897.526 163.1 895.813 165.665C895.813 164.077 895.935 162.612 896.057 161.024ZM894.833 167.374C894.589 167.619 894.466 167.985 894.344 168.229C894.221 167.374 894.221 166.642 894.221 165.787C894.344 166.275 894.589 166.886 894.833 167.374ZM916.008 135.624C916.008 135.746 916.008 135.746 916.008 135.624C915.641 136.357 915.151 136.967 914.784 137.578C914.906 136.723 915.151 135.746 915.273 134.891C915.518 135.258 915.763 135.502 916.008 135.624ZM918.945 131.839C918.578 132.327 918.211 132.693 917.844 133.182C918.211 132.571 918.456 132.083 918.945 131.839ZM901.32 155.285C901.076 154.796 900.953 154.186 900.708 153.697C900.586 153.453 900.464 153.331 900.219 153.331C900.708 152.72 901.198 151.988 901.81 151.377C901.688 152.598 901.565 153.942 901.32 155.285ZM902.789 150.278C903.279 149.668 903.768 149.057 904.38 148.446C904.258 149.423 904.258 150.4 904.135 151.377C903.891 151.011 903.523 150.767 903.156 150.4C903.034 150.4 902.911 150.278 902.789 150.278ZM903.034 152.843C903.279 153.209 903.523 153.575 903.768 153.942C903.401 154.552 903.034 155.041 902.544 155.651C902.789 154.796 902.911 153.82 903.034 152.843ZM910.133 144.905C909.888 145.271 909.643 145.638 909.398 146.126C908.052 148.08 906.828 149.912 905.482 151.866C905.604 150.889 905.604 149.912 905.727 148.935C906.094 149.301 906.706 148.935 906.828 148.569C906.951 147.714 907.195 146.981 907.318 146.126C907.44 146.37 907.563 146.737 907.685 146.981C907.93 147.592 908.664 147.469 908.786 146.859C909.031 145.882 909.276 144.905 909.398 143.928C909.398 144.05 909.521 144.294 909.521 144.417C909.521 144.661 909.888 144.905 910.133 144.905ZM910.867 143.806C910.867 142.951 910.867 142.096 910.867 141.242C910.99 141.364 911.112 141.486 911.234 141.608C911.602 141.974 911.969 141.73 912.214 141.486C911.846 142.218 911.357 143.073 910.867 143.806ZM912.458 141.242V141.119C912.703 140.142 912.948 139.288 913.193 138.311C913.193 138.311 913.193 138.433 913.315 138.433C913.438 138.799 913.682 138.921 913.927 138.921C913.438 139.776 912.948 140.509 912.458 141.242ZM921.516 128.663C921.638 128.663 921.76 128.663 921.883 128.663C921.271 129.152 920.781 129.763 920.292 130.373C920.414 130.007 920.536 129.763 920.659 129.396C921.148 129.518 921.393 129.03 921.516 128.663ZM918.456 129.64C918.456 129.885 918.456 130.007 918.456 130.251C918.089 130.251 917.844 130.373 917.477 130.373C917.721 130.129 918.089 129.885 918.456 129.64ZM916.742 131.35C916.742 132.205 916.62 132.938 916.375 133.792C916.253 133.548 916.008 133.426 915.518 133.06C915.885 132.449 916.253 131.839 916.742 131.35ZM899.484 154.308C899.24 155.285 899.117 156.262 898.872 157.239C898.75 156.872 898.628 156.506 898.383 156.14C898.383 156.018 898.26 156.018 898.138 155.896C898.628 155.407 899.117 154.796 899.484 154.308ZM896.18 158.826C896.547 158.338 896.914 157.849 897.159 157.361C897.036 158.338 896.914 159.193 896.792 160.047C896.669 159.681 896.424 159.315 896.18 158.826ZM892.63 164.81C892.63 164.688 892.508 164.688 892.508 164.566C892.63 164.322 892.875 164.077 892.997 163.711C892.875 164.199 892.875 164.566 892.753 164.932C892.753 164.932 892.753 164.81 892.63 164.81ZM893.732 162.612C894.221 161.879 894.711 161.024 895.201 160.292C895.078 161.757 894.956 163.1 894.956 164.566C894.711 164.077 894.589 163.589 894.344 162.978C894.344 162.612 893.977 162.49 893.732 162.612ZM889.203 171.771C889.326 171.282 889.448 170.916 889.448 170.427C889.448 170.55 889.57 170.672 889.57 170.916C889.57 171.649 890.672 171.526 890.794 170.916C890.794 170.794 890.794 170.794 890.917 170.672C891.039 171.282 891.161 171.893 891.284 172.503C891.406 172.992 891.896 173.114 892.141 172.992C892.263 173.114 892.263 173.236 892.385 173.358C891.161 172.992 889.815 172.625 889.203 171.771ZM900.586 173.847C899.974 173.48 899.484 173.114 898.995 172.748C899.729 172.87 900.464 172.992 901.198 173.236C901.076 173.236 901.076 173.358 901.076 173.358C900.953 173.48 900.708 173.602 900.586 173.847ZM901.565 175.068C901.688 174.946 901.688 174.824 901.81 174.701C902.055 174.824 902.299 175.068 902.544 175.312C902.177 175.312 901.932 175.19 901.565 175.068ZM905.359 176.045C904.992 175.923 904.625 175.801 904.135 175.801C904.258 175.678 904.258 175.678 904.38 175.556C904.38 175.556 904.38 175.434 904.503 175.434C904.747 175.556 905.115 175.801 905.359 176.045ZM906.583 176.411C906.706 176.045 906.706 175.434 907.93 176.777C907.44 176.655 907.073 176.533 906.583 176.411ZM909.766 177.388C909.888 177.266 910.01 177.022 909.888 176.777C911.234 177.51 912.458 178.243 913.682 178.976C912.458 178.487 911.112 177.877 909.766 177.388ZM924.331 184.959C921.393 180.075 914.906 176.9 909.888 174.335C904.992 171.893 899.852 170.427 894.344 171.038C893.487 171.16 893.609 172.381 894.466 172.381C895.568 172.259 896.669 172.259 897.648 172.381C897.526 172.503 897.404 172.625 897.404 172.748C897.404 172.992 897.281 173.236 897.281 173.358C896.669 172.992 896.057 172.748 895.323 172.381C894.833 172.137 894.344 172.503 894.344 172.992C894.344 173.114 894.344 173.114 894.344 173.236C893.732 172.625 893.242 171.893 892.508 171.282C892.508 170.183 892.508 168.962 892.508 167.863C892.753 168.596 893.12 169.328 893.365 170.183C893.487 170.55 893.732 170.672 893.977 170.672C894.344 170.916 894.833 171.038 895.323 170.427C900.953 163.223 905.727 155.407 910.745 147.836C914.906 141.73 918.701 134.647 923.474 128.908C923.596 128.908 923.596 128.908 923.719 129.03C924.208 129.274 924.576 128.541 924.208 128.175C924.576 127.687 924.943 127.32 925.31 126.954C925.432 126.954 925.555 127.076 925.677 127.076C937.06 129.885 945.995 137.212 950.891 147.836C950.523 148.202 950.401 148.569 950.279 149.179C949.911 148.813 949.299 148.813 948.932 149.423C941.466 161.757 932.654 173.358 924.331 184.959ZM950.646 150.767C950.646 150.644 950.768 150.644 950.768 150.522C951.013 150.522 951.135 150.4 951.258 150.156C952.115 146.859 961.417 150.278 963.008 150.767C966.068 151.866 969.128 153.453 971.576 155.651C976.716 160.17 977.94 165.176 978.797 171.649C978.797 171.893 979.042 172.137 979.286 172.259C979.042 172.259 978.797 172.381 978.552 172.625C969.25 183.86 959.458 194.851 950.646 206.574C948.688 194.729 937.427 185.692 925.555 185.448C934.49 174.213 942.201 162.368 950.646 150.767ZM937.672 191.065C937.549 191.187 937.549 191.309 937.427 191.431C936.815 190.699 936.081 190.21 935.102 189.722C934.857 189.6 934.612 189.722 934.49 189.966C933.633 189.355 932.776 188.745 931.797 188.256C933.878 188.989 935.836 189.844 937.672 191.065ZM947.219 212.68C947.096 210.482 946.607 208.284 945.995 206.208C946.24 206.085 946.484 205.841 946.484 205.475V205.353C947.219 207.551 947.831 209.627 949.055 211.703C948.443 212.069 947.953 212.313 947.219 212.68ZM968.76 191.798C969.372 190.577 970.841 187.402 971.331 188.134C971.576 188.501 972.188 188.379 972.31 188.012C972.555 187.157 972.922 186.425 973.167 185.57C973.167 185.814 973.167 186.058 973.167 186.303C973.167 186.547 973.411 186.791 973.534 186.791C973.289 187.035 973.167 187.157 973.044 187.279L968.76 191.798Z" fill="black" />
        <path d="M944.771 147.225C942.201 138.921 933.021 134.525 925.677 131.472C924.943 131.106 924.576 132.083 925.188 132.449C933.021 136.113 939.263 140.265 943.547 147.836C943.914 148.569 945.016 147.958 944.771 147.225Z" fill="black" />
        <path d="M941.466 152.843C938.773 145.027 930.94 139.41 923.352 136.845C922.74 136.601 922.372 137.456 922.984 137.7C931.062 140.875 935.714 146.493 940.487 153.453C940.854 153.942 941.711 153.453 941.466 152.843Z" fill="black" />
        <path d="M937.427 158.094C935.958 150.278 926.289 145.394 920.047 141.974C919.435 141.73 918.945 142.585 919.435 142.951C922.617 144.905 925.922 146.859 928.859 149.179C932.164 151.866 934 155.041 936.448 158.46C936.693 159.071 937.549 158.704 937.427 158.094Z" fill="black" />
        <path d="M933.878 163.589C930.328 156.262 922.25 151.499 914.661 149.545C914.049 149.423 913.805 150.4 914.417 150.522C922.617 153.087 927.268 157.972 932.654 164.322C933.143 164.688 934.245 164.199 933.878 163.589Z" fill="black" />
        <path d="M928.247 171.526C925.799 164.932 917.966 159.315 911.234 158.216C910.745 158.094 910.5 158.948 910.99 159.071C914.294 160.414 917.477 161.757 920.292 164.077C923.107 166.398 924.943 169.328 927.146 172.137C927.635 172.748 928.492 172.259 928.247 171.526Z" fill="black" />
        <path d="M926.779 178.121C922.128 171.526 914.417 167.13 906.828 164.932C906.216 164.81 905.849 165.543 906.461 165.787C914.417 168.473 920.169 173.114 925.922 179.098C926.411 179.464 927.146 178.731 926.779 178.121Z" fill="black" />
        <path d="M951.135 193.874C952.604 191.187 949.299 188.623 947.464 187.035C943.547 183.494 938.651 180.807 933.633 179.464C932.898 179.22 932.531 180.197 933.143 180.563C938.773 182.761 948.81 187.035 949.911 193.874C950.156 194.362 950.891 194.362 951.135 193.874Z" fill="black" />
        <path d="M955.909 188.379C953.339 181.296 944.526 175.434 937.305 174.579C937.06 174.579 936.815 174.946 937.182 175.068C940.854 176.411 944.281 177.876 947.341 180.319C950.523 182.761 952.359 185.936 954.807 188.867C955.297 189.6 956.154 189.111 955.909 188.379Z" fill="black" />
        <path d="M959.581 182.761C960.56 180.075 956.398 177.144 954.685 175.556C950.891 172.015 946.362 169.45 941.466 167.497C940.732 167.252 940.242 168.351 940.977 168.596C944.404 169.939 947.586 171.649 950.523 173.969C951.747 174.824 958.602 181.906 958.357 182.028C957.99 182.395 957.99 183.005 958.479 183.128C958.602 183.128 958.724 183.128 958.846 183.25C959.214 183.25 959.458 183.005 959.581 182.761Z" fill="black" />
        <path d="M964.477 177.999C961.294 170.794 953.339 165.787 945.995 163.589C945.26 163.345 944.893 164.444 945.505 164.688C953.583 167.375 958.112 172.381 963.375 178.731C963.865 179.22 964.844 178.731 964.477 177.999Z" fill="black" />
        <path d="M970.107 170.305C967.047 162.123 957.01 157.361 948.81 156.506C948.198 156.506 948.076 157.361 948.688 157.483C953.094 158.094 957.133 159.681 960.805 162.246C964.232 164.688 966.313 167.863 968.883 170.916C969.495 171.526 970.474 171.038 970.107 170.305Z" fill="black" />
        <path d="M972.31 165.665C969.372 158.826 963.13 153.819 956.154 151.621C955.542 151.377 955.052 152.354 955.786 152.598C962.885 155.285 967.414 160.047 971.086 166.398C971.453 167.008 972.677 166.398 972.31 165.665Z" fill="black" />
    </g>
    <g opacity="0.61" clip-path="url(#clip6)">
        <path d="M1082.42 86.3711C1079.1 84.0206 1075.59 82.2577 1071.89 81.2783C1072.67 76.7731 1073.06 72.0721 1073.26 67.567C1073.26 66.1958 1071.5 65.6082 1070.53 66.3917C1067.22 69.5257 1064.1 72.6597 1060.78 75.9896C1057.67 73.4432 1054.55 71.0927 1051.04 69.134C1049.87 68.3505 1048.51 69.5257 1048.7 70.701C1049.87 75.0103 1051.43 78.9278 1053.96 82.6494C1050.65 84.2164 1047.92 86.3711 1045.58 88.9175C1044.61 89.8969 1045.19 92.0515 1046.75 91.8556C1050.46 91.4639 1054.35 90.8762 1058.06 90.4845C1059.81 94.9896 1061.95 99.2989 1064.49 103.216C1065.46 104.588 1067.41 104 1067.61 102.433C1067.8 99.2989 1067.41 92.6391 1069.94 91.268C1071.31 90.4845 1073.84 90.6804 1075.4 90.2886C1077.54 89.8969 1079.69 89.5051 1081.83 89.3092C1083.39 89.1134 1083.39 87.1546 1082.42 86.3711ZM1071.89 87.7422C1070.14 87.9381 1067.41 87.9381 1066.24 89.3092C1065.46 90.0927 1065.46 91.6597 1065.27 92.6391C1065.07 94.2061 1064.88 95.7731 1064.68 97.3402C1063.12 94.402 1061.76 91.4639 1060.59 88.3298C1060.39 87.7422 1059.81 86.9587 1059.03 87.1546L1051.82 87.9381C1052.99 87.1546 1054.16 86.1752 1055.52 85.5876C1055.91 85.3917 1056.11 85 1056.3 84.6082C1056.5 84.4123 1056.69 84.0206 1056.5 83.4329C1054.74 80.2989 1053.38 76.969 1052.41 73.6391C1054.94 75.402 1057.28 77.1649 1059.62 79.3195C1060.39 79.7113 1061.17 79.7113 1061.95 79.1237C1064.68 76.5773 1067.22 74.0309 1069.75 71.4845C1069.55 75.0103 1068.97 78.536 1068.38 82.0618C1068.19 82.8453 1068.58 83.8247 1069.55 84.0206C1072.28 84.6082 1074.82 85.5876 1077.15 86.9587C1075.4 87.1546 1073.65 87.3505 1071.89 87.7422Z" fill="#3C3C3B" />
    </g>
    <g opacity="0.61" clip-path="url(#clip7)">
        <path d="M753.568 311.624C752.579 311.196 751.797 312.537 752.715 313.035C763.16 319.01 767.079 331.185 764.425 342.561C763.134 348.072 760.641 353.65 757.019 358.092C753.044 362.888 747.876 364.638 742.08 364.053C742.222 363.771 742.294 363.417 742.365 363.206C744.007 358.473 744.309 352.818 740.787 348.846C738.039 345.796 733.307 344.296 729.621 346.97C726.147 349.575 725.564 354.806 727.319 358.559C729.356 362.738 733.733 365.015 738.254 366.162C737.043 368.774 735.338 371.173 733.706 373.076C729.588 377.871 724.351 379.268 718.346 377.621C717.004 377.263 716.503 379.029 717.491 379.74C721.723 382.865 728.021 381.401 732.061 378.516C736.172 375.701 739.086 371.256 741.01 366.666C741.364 366.738 741.788 366.739 742.141 366.811C747.796 367.396 753.246 365.929 757.361 361.841C761.759 357.472 764.891 351.26 766.608 345.326C770.256 332.681 766.561 317.041 753.568 311.624ZM729.535 351.566C730.676 348.459 733.791 347.338 736.686 348.832C739.509 350.256 740.843 353.301 740.903 356.342C740.966 358.675 740.322 361.148 739.465 363.549C733.883 362.187 727.038 358.134 729.535 351.566Z" fill="black" />
    </g>
    <g opacity="0.61" clip-path="url(#clip8)">
        <path d="M250.568 67.6238C249.579 67.1962 248.797 68.5372 249.715 69.0352C260.16 75.0097 264.079 87.185 261.425 98.5607C260.134 104.072 257.641 109.65 254.02 114.092C250.044 118.888 244.876 120.638 239.08 120.053C239.222 119.771 239.294 119.417 239.365 119.206C241.007 114.473 241.309 108.818 237.787 104.846C235.039 101.796 230.307 100.296 226.621 102.97C223.147 105.575 222.564 110.806 224.319 114.559C226.356 118.738 230.733 121.015 235.254 122.162C234.043 124.774 232.338 127.173 230.706 129.076C226.588 133.871 221.351 135.268 215.346 133.621C214.004 133.263 213.503 135.029 214.491 135.74C218.723 138.865 225.021 137.401 229.061 134.516C233.172 131.701 236.086 127.256 238.01 122.666C238.364 122.738 238.788 122.739 239.141 122.811C244.796 123.396 250.246 121.929 254.361 117.841C258.759 113.472 261.891 107.26 263.608 101.326C267.256 88.6806 263.561 73.0411 250.568 67.6238ZM226.535 107.566C227.676 104.459 230.791 103.338 233.686 104.832C236.509 106.256 237.843 109.301 237.903 112.342C237.966 114.675 237.322 117.148 236.465 119.549C230.883 118.187 224.038 114.134 226.535 107.566Z" fill="black" />
    </g>
    <g opacity="0.61" clip-path="url(#clip9)">
        <path d="M744.934 1.63322C743.941 1.21781 743.175 2.56821 744.099 3.05495C754.616 8.90099 758.684 21.0274 756.17 32.4347C754.946 37.9613 752.522 43.5693 748.955 48.0561C745.038 52.8996 739.893 54.7134 734.089 54.1995C734.228 53.9154 734.296 53.5612 734.365 53.3484C735.949 48.5965 736.181 42.9373 732.61 39.0093C729.826 35.9934 725.075 34.5509 721.422 37.2706C717.981 39.9177 717.462 45.1551 719.263 48.8869C721.351 53.0403 725.755 55.2638 730.29 56.3548C729.112 58.9817 727.436 61.4009 725.827 63.3245C721.769 68.1693 716.549 69.6302 710.524 68.0575C709.178 67.716 708.698 69.4881 709.695 70.1863C713.965 73.2596 720.245 71.7186 724.249 68.7836C728.325 65.9186 731.184 61.4382 733.052 56.8251C733.406 56.8927 733.831 56.8889 734.185 56.9564C739.846 57.4716 745.278 55.9381 749.342 51.8005C753.687 47.3774 756.743 41.1274 758.386 35.1728C761.88 22.4839 757.993 6.89087 744.934 1.63322ZM721.392 41.8672C722.496 38.746 725.597 37.5869 728.509 39.0459C731.35 40.4348 732.721 43.4632 732.819 46.503C732.91 48.8358 732.296 51.3162 731.469 53.7279C725.871 52.4343 718.976 48.4652 721.392 41.8672Z" fill="black" />
    </g>
    <g opacity="0.61" clip-path="url(#clip10)">
        <path d="M1192.39 234.509C1190.29 230.966 1186.42 230.161 1182.55 230.161C1175.77 230 1168.99 230.322 1162.38 230.322C1147.53 230.483 1132.69 230.644 1117.69 230.805C1109.94 230.966 1102.2 230.966 1094.45 231.127C1090.42 231.288 1085.9 231.449 1084.29 235.958C1084.13 236.119 1084.13 236.441 1084.13 236.602C1083.81 236.763 1083.65 237.086 1083.48 237.569C1082.84 250.934 1083 264.3 1083.32 277.666C1083.48 284.59 1083.81 291.515 1084.29 298.439C1084.61 302.304 1084.45 306.813 1087.84 309.229C1091.55 311.966 1097.68 310.839 1102.04 310.678C1108.65 310.678 1115.43 310.517 1122.04 310.517C1135.6 310.356 1149.31 310.195 1162.86 310.034C1169.48 310.034 1176.25 310.034 1182.87 309.873C1186.74 309.712 1189.97 308.746 1191.42 304.72C1193.19 299.889 1192.39 293.608 1192.55 288.616L1193.03 268.165C1193.19 261.563 1193.35 254.96 1193.52 248.358C1193.84 244.01 1194.81 238.374 1192.39 234.509ZM1087.03 236.602C1088.65 232.738 1098.97 234.187 1102.2 234.187C1107.85 234.187 1113.49 234.026 1119.14 234.026C1130.43 233.865 1141.73 233.704 1153.18 233.543C1158.34 233.543 1163.51 233.382 1168.67 233.221C1174.16 233.06 1180.77 232.093 1186.09 233.382C1191.9 234.831 1190.93 241.433 1190.77 246.103C1190.77 247.714 1190.61 249.324 1190.61 250.773C1190.45 250.612 1190.29 250.612 1189.97 250.612C1172.38 251.418 1154.63 252.062 1137.05 252.223C1128.34 252.223 1119.62 252.223 1110.91 252.223C1106.72 252.223 1102.52 252.223 1098.33 251.901C1094.13 251.74 1089.94 250.773 1085.74 250.451C1085.74 246.103 1085.58 241.917 1085.42 237.569C1086.23 237.569 1086.71 237.247 1087.03 236.602ZM1189.32 296.185C1189.32 298.6 1189.48 301.338 1188.51 303.592C1187.06 307.135 1183.19 306.652 1179.96 306.652C1174.32 306.652 1168.67 306.813 1163.02 306.813C1140.44 307.135 1117.85 307.779 1095.1 307.618C1091.71 307.618 1088.81 307.296 1087.84 303.431C1087.19 300.855 1087.36 297.634 1087.19 294.736C1086.87 288.616 1086.55 282.336 1086.39 276.217C1086.07 268.165 1086.07 259.952 1085.9 251.901C1092.52 254.96 1101.07 254.477 1108.01 254.638C1117.2 254.799 1126.4 254.799 1135.6 254.799C1153.83 254.799 1171.9 254.316 1189.97 253.35C1190.13 253.35 1190.45 253.35 1190.61 253.189C1190.45 256.571 1190.45 260.113 1190.29 263.495C1189.97 274.445 1189.64 285.396 1189.32 296.185Z" fill="#3C3C3B" />
        <path d="M1095.42 241.916C1095.42 241.111 1095.1 240.306 1094.45 239.662C1093.65 238.857 1091.71 239.018 1090.74 239.018C1089.94 239.018 1089.61 239.662 1089.78 240.145C1089.61 240.145 1089.45 240.145 1089.29 240.306C1088.32 241.594 1088.32 243.366 1089.29 244.654C1090.26 246.103 1092.2 246.586 1093.81 245.781C1094.94 245.137 1095.58 243.366 1095.42 241.916ZM1092.2 244.171C1090.58 244.493 1089.61 242.399 1090.26 241.272V241.111C1090.42 241.111 1090.42 241.272 1090.58 241.272C1091.39 241.272 1092.2 241.272 1093 241.433C1093.65 242.238 1093.33 243.849 1092.2 244.171Z" fill="#3C3C3B" />
        <path d="M1172.38 236.28C1164.48 236.28 1156.25 237.569 1148.18 238.052C1131.72 239.018 1115.27 238.857 1098.81 239.501C1098.17 239.501 1098 240.145 1098.33 240.467C1098.33 240.628 1098.17 240.628 1098.17 240.789C1098 242.077 1097.84 243.527 1097.68 244.815C1097.68 245.459 1098.17 245.942 1098.81 245.942C1112.04 246.425 1125.27 246.264 1138.5 246.103C1151.73 245.942 1165.12 246.103 1178.19 244.815C1178.67 244.815 1179 244.332 1179.16 244.01C1179.32 243.849 1179.32 243.688 1179.48 243.527C1180.93 238.857 1176.41 236.441 1172.38 236.28ZM1099.78 243.688C1099.62 242.722 1099.46 241.755 1099.46 240.628C1112.04 241.755 1124.79 241.433 1137.37 240.95C1143.5 240.628 1149.79 240.306 1155.92 239.984C1158.99 239.662 1162.06 239.501 1165.12 239.179C1167.54 239.018 1178.67 236.924 1177.22 242.722C1164.31 242.722 1151.25 243.527 1138.34 243.849C1125.59 244.01 1112.69 243.849 1099.78 243.688Z" fill="#3C3C3B" />
        <path d="M1122.53 273.801C1122.04 272.352 1119.95 272.674 1119.95 274.123C1119.95 275.089 1119.95 276.056 1119.62 276.861C1118.82 275.895 1118.01 274.928 1117.2 273.962C1116.88 273.479 1115.91 273.479 1115.43 273.801C1114.14 274.606 1113.98 275.733 1113.82 277.022C1113.82 277.183 1113.82 278.31 1113.49 278.31C1113.65 278.31 1113.01 277.022 1113.01 277.022C1112.52 276.056 1111.88 275.089 1111.23 274.123C1111.07 273.801 1110.59 273.962 1110.43 274.284C1110.27 276.217 1111.07 280.242 1113.49 280.726C1114.46 280.887 1115.27 280.403 1115.75 279.598C1116.07 279.115 1116.07 278.149 1116.24 277.344C1117.04 278.31 1118.01 279.437 1118.82 280.403C1119.46 281.209 1120.59 280.887 1121.08 280.081C1122.37 278.471 1123.17 276.056 1122.53 273.801Z" fill="#3C3C3B" />
        <path d="M1138.02 273.479C1137.53 272.996 1136.73 273.157 1136.4 273.64C1135.92 274.284 1135.92 274.928 1135.76 275.573C1135.6 275.895 1135.6 276.217 1135.27 276.539C1134.47 275.573 1133.66 274.767 1132.69 273.962C1131.89 273.318 1130.11 273.64 1130.27 274.928C1130.27 275.895 1130.11 276.861 1129.79 277.666C1128.98 276.861 1128.66 275.734 1128.66 274.767C1128.66 273.801 1127.05 273.479 1126.88 274.606C1126.4 277.183 1127.53 279.276 1129.63 280.726C1130.11 281.048 1130.76 280.887 1131.24 280.565C1131.89 279.921 1132.37 278.954 1132.69 278.149C1133.18 278.632 1133.66 279.276 1134.14 279.921C1134.63 280.726 1135.76 280.887 1136.4 280.243C1138.02 278.471 1139.79 275.412 1138.02 273.479Z" fill="#3C3C3B" />
        <path d="M1155.92 274.284C1155.6 274.445 1155.12 274.767 1154.96 275.09C1154.63 275.573 1154.8 276.378 1154.47 276.861C1153.34 278.471 1151.73 275.412 1150.6 274.606C1149.95 274.123 1149.15 274.123 1148.5 274.606C1147.7 275.251 1147.05 276.056 1146.73 277.022C1145.92 276.056 1145.28 275.251 1144.47 274.284C1143.82 273.479 1142.53 274.445 1143.18 275.251C1144.31 277.022 1145.6 278.954 1146.57 280.726C1147.21 281.853 1149.31 281.37 1149.15 280.082C1148.99 279.115 1149.15 278.31 1149.63 277.666C1150.92 279.276 1152.21 281.209 1154.63 280.887C1157.22 280.565 1157.38 277.505 1157.7 275.412C1157.86 274.445 1156.57 273.962 1155.92 274.284Z" fill="#3C3C3B" />
    </g>
    <g opacity="0.61" clip-path="url(#clip11)">
        <path d="M945.467 595.104C944.464 593.288 942.86 591.875 940.855 591.472C940.855 591.27 940.655 591.068 940.254 591.068C932.434 589.857 927.822 600.552 935.041 604.789C937.848 606.403 941.858 606.403 944.264 603.982C946.67 601.762 946.871 597.929 945.467 595.104Z" fill="#3C3C3B" />
        <path d="M956.896 573.715C948.675 567.056 937.046 564.231 926.82 567.056C925.817 566.047 923.612 566.451 923.411 568.469C923.211 572.504 923.411 576.742 923.411 580.979C923.411 581.988 924.213 582.593 925.015 582.593C925.015 583.199 925.617 583.804 926.419 583.199C932.835 578.961 940.655 581.786 946.67 585.822C949.477 587.84 952.084 590.261 953.888 593.086C955.693 595.911 956.094 598.937 957.497 601.964C957.497 601.964 957.497 602.166 957.698 602.166C957.698 602.368 957.898 602.569 957.898 602.569C960.505 604.587 964.114 604.184 967.122 603.78C967.924 603.78 968.525 603.377 968.926 602.771C969.528 602.771 970.33 602.569 970.53 601.561C972.536 591.673 964.114 579.567 956.896 573.715ZM963.713 588.647C963.312 588.647 963.112 588.647 962.711 588.848C962.109 587.234 961.508 585.62 961.107 583.804C961.909 584.813 962.51 586.023 963.112 587.032C963.312 587.84 963.513 588.243 963.713 588.647ZM927.221 570.083C927.822 571.092 928.424 572.101 928.825 573.311C928.223 572.706 927.622 572.302 927.02 571.697C927.221 571.092 927.221 570.688 927.221 570.083ZM930.228 578.356C929.827 577.75 929.426 577.145 929.226 576.54C929.827 577.145 930.228 577.549 930.83 578.154C930.629 578.356 930.429 578.356 930.228 578.356ZM934.038 577.75C933.637 577.145 933.437 576.54 933.036 575.934C933.637 576.54 934.239 577.145 934.84 577.75C934.64 577.75 934.439 577.75 934.038 577.75ZM939.251 578.356C938.65 577.145 938.048 575.934 937.647 574.724C938.65 575.934 939.652 577.347 940.655 578.558C940.053 578.558 939.652 578.356 939.251 578.356ZM942.259 572.302C941.457 571.092 939.652 571.899 940.053 573.311C940.053 573.513 940.053 573.715 940.254 573.917C939.251 572.504 938.048 571.092 936.845 569.881C939.853 570.285 943.061 570.89 945.868 571.899C946.269 574.32 946.67 576.54 947.272 578.759C945.467 576.742 943.863 574.522 942.259 572.302ZM944.665 580.172C944.464 579.768 944.264 579.365 944.063 578.961C944.464 579.567 944.865 579.97 945.266 580.575C945.066 580.374 944.865 580.374 944.665 580.172ZM952.084 585.015C951.282 583.4 950.68 581.584 950.079 579.97C950.881 581.786 951.883 583.602 952.685 585.62C952.485 585.418 952.284 585.216 952.084 585.015ZM958.099 580.374C957.497 580.575 956.896 581.181 957.096 582.19C957.698 584.409 958.299 586.629 958.901 588.848C957.497 585.216 956.094 581.383 954.69 577.75C954.089 576.338 952.084 576.54 951.883 577.952C951.282 576.54 950.48 575.127 949.878 573.715C951.482 574.522 953.086 575.733 954.69 576.943C955.893 577.952 956.896 579.163 958.099 580.374ZM934.64 569.679C934.439 569.881 934.239 570.083 934.439 570.486C934.439 571.697 934.64 573.11 935.041 574.118C933.637 572.504 932.033 571.092 930.629 569.478C931.832 569.478 933.236 569.478 934.64 569.679ZM926.82 578.154C927.221 578.558 927.622 578.961 928.023 579.365C927.622 579.567 927.02 579.97 926.619 580.374C926.82 579.567 926.82 578.961 926.82 578.154Z" fill="#3C3C3B" />
        <path d="M994.391 573.917C991.183 565.038 986.17 556.765 979.353 550.308C964.315 535.982 940.454 535.377 921.807 542.439C921.005 542.641 920.805 543.246 920.805 543.851C920.805 543.851 920.604 543.851 920.604 544.053C918.599 545.466 919 548.089 919.2 550.308C919.401 551.519 919.802 552.73 920.203 553.94C920.805 554.949 921.406 555.353 922.008 556.16C922.008 557.169 922.81 557.976 923.812 557.573C937.046 552.326 952.485 554.344 963.914 562.819C969.327 566.854 973.739 572.101 976.546 578.154C979.754 585.216 979.754 591.875 980.355 599.139C980.355 600.148 981.358 600.955 982.16 600.955C983.563 602.166 985.569 601.561 987.173 601.359C989.378 601.157 991.784 601.157 993.99 601.359C994.992 602.368 996.797 602.166 997.198 600.552C999.203 592.279 997.198 581.988 994.391 573.917ZM931.431 551.519C931.231 550.712 930.83 549.905 930.629 549.098C931.431 549.703 932.233 550.51 933.036 551.116C932.434 551.116 932.033 551.317 931.431 551.519ZM926.619 551.116C925.617 550.51 924.815 549.703 924.614 548.896C925.617 550.107 926.82 551.317 927.822 552.528C927.622 552.528 927.221 552.73 927.02 552.73C927.221 552.326 927.421 551.519 926.619 551.116ZM942.058 543.65C942.259 544.659 942.459 545.667 942.66 546.676C941.858 545.466 940.855 544.255 940.053 543.044C939.853 542.843 939.853 542.843 939.652 542.641C940.454 542.641 941.256 542.439 942.259 542.439C942.058 542.843 942.058 543.246 942.058 543.65ZM937.246 544.255C937.447 545.062 937.848 546.071 938.048 546.878C936.845 545.667 935.642 544.457 934.439 543.246C935.442 543.044 936.645 543.044 937.647 542.843C937.447 543.246 937.246 543.65 937.246 544.255ZM931.632 544.457C932.033 545.264 932.233 545.869 932.635 546.676C931.632 545.869 930.429 544.86 929.426 544.053C930.028 543.851 930.83 543.851 931.431 543.65C931.431 543.851 931.431 544.255 931.632 544.457ZM926.419 544.86C926.619 545.869 927.02 546.676 927.221 547.685C926.419 546.676 925.416 545.869 924.614 544.86C925.216 544.659 925.817 544.659 926.419 544.457C926.419 544.659 926.419 544.659 926.419 544.86ZM946.269 549.3C946.67 550.107 947.272 550.712 947.673 551.519C947.272 551.519 946.871 551.317 946.269 551.317C946.269 550.51 946.269 549.905 946.269 549.3ZM977.147 562.213C977.949 560.801 978.751 559.389 979.353 557.976C979.553 557.371 979.553 556.967 979.553 556.564C980.355 557.573 981.157 558.38 981.759 559.389C981.558 559.389 981.358 559.59 981.157 559.792C979.954 560.801 978.551 561.608 977.147 562.213ZM971.332 552.528C971.332 551.721 971.332 550.914 971.332 550.107C971.332 548.492 969.127 547.685 968.124 549.3C967.723 550.107 967.322 550.712 967.122 551.317C967.122 549.703 967.122 548.291 966.921 546.676C969.127 547.685 971.533 549.098 973.538 550.712C972.536 551.317 971.934 551.923 971.332 552.528ZM962.51 547.887C962.109 546.676 961.508 545.466 960.906 544.457C961.708 544.659 962.51 544.86 963.312 545.264C962.911 546.071 962.711 546.878 962.51 547.887ZM957.096 544.053C957.096 544.86 957.096 545.667 957.096 546.475C956.495 545.264 956.094 544.255 955.492 543.044C956.094 543.044 956.695 543.246 957.297 543.448C957.096 543.65 957.096 543.851 957.096 544.053ZM952.284 544.255C952.685 545.667 952.685 547.282 952.886 548.694C951.883 546.676 950.68 544.659 949.678 542.641C950.68 542.641 951.683 542.843 952.685 542.843C952.485 543.246 952.284 543.65 952.284 544.255ZM956.094 552.528C956.294 553.133 956.495 553.739 956.695 554.344C956.495 554.344 956.294 554.142 955.893 554.142C955.893 553.537 955.893 552.932 956.094 552.528ZM960.104 554.949C960.104 553.739 960.104 552.528 960.104 551.317C960.305 552.528 960.706 553.537 960.706 554.748C960.906 555.958 962.109 556.765 963.112 556.16C963.112 556.765 963.112 557.169 963.112 557.573C962.109 556.967 961.107 556.362 959.904 555.756C960.104 555.555 960.104 555.353 960.104 554.949ZM967.523 557.169C967.322 558.178 967.122 559.187 966.921 560.196C966.721 559.994 966.32 559.792 966.119 559.59C966.52 558.783 967.122 557.976 967.523 557.169ZM985.97 565.846C986.371 566.653 986.772 567.46 987.173 568.065C985.97 568.469 984.967 568.872 983.764 569.276C984.566 568.065 985.368 567.056 985.97 565.846ZM990.18 574.926C990.581 575.935 990.982 577.145 991.183 578.154C990.18 578.154 989.378 578.154 988.376 578.154C988.576 578.154 988.576 578.154 988.777 577.952C990.782 577.145 990.581 574.32 988.376 574.32C987.574 574.32 986.772 574.32 985.97 574.119C986.972 573.311 987.975 572.504 988.977 571.495C989.378 572.908 989.779 573.917 990.18 574.926ZM992.987 593.893C993.388 592.682 992.787 591.27 991.383 591.27C991.183 591.27 990.782 591.27 990.581 591.27L991.784 591.068C992.586 590.866 992.987 590.261 992.987 589.656C993.188 591.068 993.188 592.481 993.188 594.095C993.188 593.893 993.188 593.893 992.987 593.893ZM992.987 588.848C992.787 588.243 992.386 587.638 991.784 587.436C991.985 587.436 991.985 587.436 992.185 587.436C992.586 587.436 992.787 587.234 992.987 587.032C992.787 587.436 992.987 588.243 992.987 588.848ZM992.386 583.804C992.185 583.602 991.784 583.602 991.383 583.602C990.381 583.602 989.378 583.4 988.376 583.4C989.579 582.997 990.782 582.593 991.985 582.19C992.185 582.593 992.386 583.199 992.386 583.804ZM978.35 555.353C977.749 555.151 977.147 555.151 976.345 555.756C975.944 556.16 975.543 556.362 975.142 556.765C975.543 555.756 975.944 554.546 976.345 553.335C976.546 553.537 976.746 553.739 976.947 553.94C977.548 554.344 977.949 554.949 978.35 555.353ZM946.67 542.439C946.47 542.641 946.47 543.044 946.67 543.448C946.871 544.053 946.871 544.86 947.071 545.466C946.269 544.457 945.668 543.448 944.865 542.641C945.467 542.439 946.069 542.439 946.67 542.439ZM923.612 554.344C923.612 553.94 923.411 553.537 923.411 553.335C923.211 552.528 923.01 551.721 922.81 550.712C923.411 551.721 924.414 552.528 925.617 553.133C925.817 553.133 925.817 553.133 926.018 553.335C925.015 553.537 924.414 553.94 923.612 554.344ZM976.145 569.881C977.348 569.276 978.551 568.872 979.754 568.267C978.952 569.074 978.15 570.083 977.348 570.89C977.147 571.092 977.147 571.092 977.147 571.294C976.746 570.89 976.546 570.285 976.145 569.881ZM983.964 598.332C983.964 597.929 984.165 597.727 984.165 597.323C984.365 597.323 984.365 597.323 984.566 597.323C984.566 597.525 984.766 597.929 984.967 598.13C984.566 598.13 984.365 598.13 983.964 598.332Z" fill="#3C3C3B" />
    </g>
    <g opacity="0.61" clip-path="url(#clip12)">
        <path d="M121.472 156.646C133.083 146.734 141.176 132.044 140.824 116.469C140.648 102.664 133.611 88.6813 121.648 81.6017C108.806 74.3451 91.9167 75.938 80.4815 84.9645C69.2222 93.8141 63.5926 108.858 65.5278 123.018C67.6389 138.77 79.7778 155.053 95.787 158.77C95.963 159.124 96.1389 159.301 96.3148 159.478C93.8519 160.717 93.3241 163.903 95.2593 166.38C95.4352 166.557 95.6111 166.734 95.787 166.911C92.9722 168.504 92.9722 172.221 95.0833 174.522L94.9074 174.699C92.9722 178.239 94.2037 181.071 96.4907 183.018V183.195C96.1389 186.734 98.9537 189.743 101.065 192.221C103.528 194.876 106.694 197 110.565 197C117.25 196.823 123.759 188.858 119.713 182.487C119.537 182.31 119.537 182.133 119.361 182.133C121.296 180.009 122.352 177.177 121.12 174.168C121.824 173.46 122.352 172.398 122.704 171.336C123.231 169.212 122.352 166.911 120.769 165.849C121.12 165.319 121.472 164.788 121.648 164.257C122.704 161.602 122 158.239 119.537 156.823C119.537 156.823 119.537 156.823 119.537 156.646C120.065 157.177 120.769 157.177 121.472 156.646ZM116.546 189.743C114.963 193.283 110.917 194.522 107.574 193.283C104.407 192.044 100.185 188.15 98.7778 184.611C101.944 186.203 105.991 187.088 108.63 186.911C111.269 186.911 114.611 185.672 117.074 183.903C117.25 185.849 117.426 187.796 116.546 189.743ZM110.917 183.372C106.694 184.257 94.9074 182.487 96.4907 175.761C100.537 178.416 107.222 178.416 111.444 177.885C113.38 177.708 115.667 177.177 117.778 176.292C116.898 179.832 115.139 182.487 110.917 183.372ZM114.083 173.814C112.148 174.345 110.213 174.522 108.278 174.699C106.343 174.699 104.231 174.699 102.296 174.345C100.713 174.168 92.9722 172.575 96.8426 168.681C97.0185 168.504 97.0185 168.327 97.0185 168.15C100.537 170.451 105.991 170.628 109.685 170.274C112.148 170.097 114.963 169.743 117.25 168.504C121.824 169.389 115.843 173.283 114.083 173.814ZM110.741 157.708C109.861 157.885 108.981 158.062 107.926 158.239C107.574 158.239 106.519 158.416 105.463 158.416C105.287 151.159 101.417 144.611 97.5463 138.593C95.2593 135.053 93.1482 131.69 90.6852 128.15C91.5648 126.38 92.7963 124.788 94.3796 123.549C99.3056 119.832 103.88 120.894 108.454 123.903C107.398 135.053 109.509 146.734 110.741 157.708ZM116.898 159.301C121.824 163.903 112.324 166.38 108.981 166.734C106.694 166.911 104.231 166.734 101.944 166.203C101.065 166.026 99.8333 165.849 99.1296 165.319C97.8982 164.611 95.4352 161.602 97.1944 160.186C99.4815 161.425 103.352 161.425 105.287 161.425C108.981 161.602 113.731 161.248 116.898 159.301ZM118.833 153.814C118.481 154.168 118.306 154.345 118.306 154.699C118.13 154.699 118.13 154.699 117.954 154.699C116.194 155.407 114.611 156.115 112.852 156.823C113.204 146.557 111.269 136.115 111.972 126.026C114.259 127.442 117.074 128.327 119.713 127.442C122.528 126.38 123.935 123.726 123.407 120.717C123.056 118.77 120.065 119.301 120.065 121.248C118.13 124.257 116.194 124.788 113.907 123.195C113.38 122.841 112.852 122.487 112.324 122.133C112.852 119.124 113.556 116.115 114.787 113.106C115.315 112.044 115.491 111.513 116.019 110.451C116.722 108.504 113.556 107.088 112.676 109.035C110.917 112.398 109.861 116.115 109.157 119.655C108.981 119.478 108.63 119.478 108.454 119.301C106.694 118.239 104.759 117.531 102.824 117.354C98.25 117 93.5 119.124 90.5093 122.487C89.8056 123.195 89.2778 124.08 88.75 124.965C86.8148 122.133 84.8796 119.301 82.7685 116.469C82.9444 115.938 82.9444 115.407 82.5926 114.876C81.713 113.814 81.537 113.637 80.1296 113.46C78.7222 113.283 76.963 114.699 78.0185 116.115C81.0093 120.186 84 124.434 86.9907 128.681C86.287 130.805 85.9352 133.106 85.9352 135.23C85.9352 137.177 86.8148 140.186 89.2778 138.947C90.1574 138.593 89.4537 137.177 88.5741 137.354C88.2222 137.531 88.75 133.814 89.1019 131.867C90.3333 133.637 91.5648 135.407 92.7963 137.177C97.1944 143.726 101.593 150.274 102.648 158.062C100.185 158.062 97.7222 157.708 97.5463 156.823C97.3704 155.938 96.3148 155.761 95.787 156.292C90.5093 152.575 84.8796 149.92 80.1296 144.965C75.5556 140.186 72.037 134.345 70.2778 127.973C66.5833 115.407 69.75 101.248 78.7222 91.5132C88.2222 81.4247 103.704 77.8849 116.546 83.3716C128.333 88.5043 135.898 100.717 137.13 113.46C138.361 129.212 130.269 143.726 118.833 153.814Z" fill="#3C3C3B" />
    </g>
    <g opacity="0.61" clip-path="url(#clip13)">
        <path d="M139.643 371.873C139.643 366.353 139.643 361 139.809 355.48C139.809 350.295 139.809 345.109 139.477 339.924C139.144 334.738 137.814 329.553 137.648 324.367C137.648 323.531 136.65 323.364 136.484 324.033C135.487 328.884 136.65 334.069 136.817 339.087C137.149 344.607 137.149 349.96 137.149 355.48C137.149 361 136.983 366.353 137.149 371.873C137.149 377.058 136.983 382.745 138.147 387.764C138.313 388.935 140.142 388.6 140.142 387.429C140.474 382.244 139.643 377.058 139.643 371.873Z" fill="#3C3C3B" />
        <path d="M197.667 372.709C197.501 361.167 197.169 349.625 197.002 338.084C196.836 331.058 198.998 319.349 189.521 318.178C177.716 316.505 165.413 316.673 153.609 316.004C148.455 315.669 142.303 314.331 137.315 315.335C136.152 315.669 134.821 316.171 133.99 316.84C132.826 316.84 131.663 318.345 131.164 319.182C130.499 320.353 130.166 321.691 130.166 323.029C130.166 323.698 130.831 323.865 131.33 323.698C129.834 346.113 130.333 368.862 130 391.276C130 395.124 129.335 399.473 131.829 402.651C133.824 405.327 137.149 406.164 140.308 406.498C150.782 407.669 161.755 406.665 172.23 406.665C177.55 406.665 183.037 406.833 188.357 406.665C191.848 406.498 194.675 405.662 196.337 402.316C198 398.971 197.834 394.789 197.834 391.109C198.166 384.92 197.834 378.898 197.667 372.709ZM193.677 399.975C192.015 404.324 185.531 403.153 181.707 403.153C177.051 403.153 172.396 403.153 167.575 403.32C159.262 403.32 150.782 403.655 142.469 403.487C137.149 403.32 133.658 401.815 133.159 395.96C132.826 391.444 133.325 386.927 133.325 382.578C133.491 362.338 134.323 342.098 133.325 321.858C134.489 322.36 136.152 321.524 135.819 320.018C135.487 317.676 146.46 319.015 147.457 319.015C152.112 319.349 156.768 319.516 161.423 319.851C170.235 320.353 179.046 320.687 187.858 321.356C191.183 321.691 193.012 323.029 193.511 326.375C193.677 328.215 193.677 329.887 193.677 331.727C193.677 336.578 193.844 341.429 193.844 346.28C194.01 355.48 194.176 364.513 194.176 373.713C194.176 378.062 194.342 382.244 194.342 386.593C194.675 390.607 195.174 395.96 193.677 399.975Z" fill="#3C3C3B" />
        <path d="M191.682 382.746C192.846 380.237 192.68 377.226 192.513 374.382C192.181 368.862 191.682 363.342 191.35 357.822C190.685 347.117 190.02 336.411 188.523 325.873C188.523 325.873 188.523 325.873 188.523 325.706C188.523 325.204 188.191 324.535 187.359 324.535C179.379 325.371 171.565 326.04 163.751 325.873C155.438 325.538 147.291 324.535 138.978 323.364C137.98 323.197 137.648 324.535 138.479 324.702C153.775 328.884 171.399 329.887 187.027 327.044C187.027 336.578 187.858 345.946 188.523 355.48C189.188 364.68 190.518 373.713 189.188 382.913C189.022 383.08 189.022 383.247 189.022 383.582C189.355 388.433 145.795 386.426 141.139 386.426C140.142 386.426 139.809 388.098 140.973 388.266C151.614 390.106 162.421 389.938 173.227 389.437C177.883 389.269 183.203 389.437 187.858 388.266C190.518 387.597 192.347 386.091 191.848 383.08C191.682 383.08 191.682 382.913 191.682 382.746Z" fill="#3C3C3B" />
        <path d="M169.57 396.127C169.403 394.622 168.24 393.284 166.91 392.615C166.91 392.28 166.743 391.946 166.411 391.946C164.083 391.778 161.755 393.451 161.423 395.96C161.257 398.469 163.252 400.142 165.579 400.309C167.907 400.309 169.902 398.636 169.57 396.127ZM165.413 397.8C163.584 397.633 163.418 395.96 164.083 394.622C164.249 394.956 164.748 395.124 165.247 394.956C166.244 394.789 167.076 395.626 167.076 396.629C167.076 397.466 166.244 397.967 165.413 397.8Z" fill="#3C3C3B" />
    </g>
    <g opacity="0.61" clip-path="url(#clip14)">
        <path d="M893.415 272.371C890.103 270.021 886.595 268.258 882.892 267.278C883.672 262.773 884.062 258.072 884.256 253.567C884.256 252.196 882.503 251.608 881.528 252.392C878.215 255.526 875.097 258.66 871.785 261.99C868.667 259.443 865.549 257.093 862.041 255.134C860.872 254.35 859.508 255.526 859.703 256.701C860.872 261.01 862.431 264.928 864.964 268.649C861.651 270.216 858.923 272.371 856.585 274.917C855.61 275.897 856.195 278.051 857.754 277.856C861.456 277.464 865.354 276.876 869.056 276.484C870.81 280.99 872.954 285.299 875.487 289.216C876.462 290.588 878.41 290 878.605 288.433C878.8 285.299 878.41 278.639 880.944 277.268C882.308 276.484 884.841 276.68 886.4 276.289C888.544 275.897 890.687 275.505 892.831 275.309C894.39 275.113 894.39 273.155 893.415 272.371ZM882.892 273.742C881.138 273.938 878.41 273.938 877.241 275.309C876.462 276.093 876.462 277.66 876.267 278.639C876.072 280.206 875.877 281.773 875.682 283.34C874.123 280.402 872.759 277.464 871.59 274.33C871.395 273.742 870.81 272.959 870.031 273.155L862.82 273.938C863.99 273.155 865.159 272.175 866.523 271.588C866.913 271.392 867.108 271 867.303 270.608C867.497 270.412 867.692 270.021 867.497 269.433C865.744 266.299 864.379 262.969 863.405 259.639C865.938 261.402 868.277 263.165 870.615 265.32C871.395 265.711 872.174 265.711 872.954 265.124C875.682 262.577 878.215 260.031 880.749 257.484C880.554 261.01 879.969 264.536 879.385 268.062C879.19 268.845 879.579 269.825 880.554 270.021C883.282 270.608 885.815 271.588 888.154 272.959C886.4 273.155 884.646 273.35 882.892 273.742Z" fill="#3C3C3B" />
    </g>
    <g opacity="0.61" clip-path="url(#clip15)">
        <path d="M323.415 450.371C320.103 448.021 316.595 446.258 312.892 445.278C313.672 440.773 314.062 436.072 314.256 431.567C314.256 430.196 312.503 429.608 311.528 430.392C308.215 433.526 305.097 436.66 301.785 439.99C298.667 437.443 295.549 435.093 292.041 433.134C290.872 432.35 289.508 433.526 289.703 434.701C290.872 439.01 292.431 442.928 294.964 446.649C291.651 448.216 288.923 450.371 286.585 452.917C285.61 453.897 286.195 456.051 287.754 455.856C291.456 455.464 295.354 454.876 299.056 454.484C300.81 458.99 302.954 463.299 305.487 467.216C306.462 468.588 308.41 468 308.605 466.433C308.8 463.299 308.41 456.639 310.944 455.268C312.308 454.484 314.841 454.68 316.4 454.289C318.544 453.897 320.687 453.505 322.831 453.309C324.39 453.113 324.39 451.155 323.415 450.371ZM312.892 451.742C311.138 451.938 308.41 451.938 307.241 453.309C306.462 454.093 306.462 455.66 306.267 456.639C306.072 458.206 305.877 459.773 305.682 461.34C304.123 458.402 302.759 455.464 301.59 452.33C301.395 451.742 300.81 450.959 300.031 451.155L292.82 451.938C293.99 451.155 295.159 450.175 296.523 449.588C296.913 449.392 297.108 449 297.303 448.608C297.497 448.412 297.692 448.021 297.497 447.433C295.744 444.299 294.379 440.969 293.405 437.639C295.938 439.402 298.277 441.165 300.615 443.32C301.395 443.711 302.174 443.711 302.954 443.124C305.682 440.577 308.215 438.031 310.749 435.484C310.554 439.01 309.969 442.536 309.385 446.062C309.19 446.845 309.579 447.825 310.554 448.021C313.282 448.608 315.815 449.588 318.154 450.959C316.4 451.155 314.646 451.35 312.892 451.742Z" fill="#3C3C3B" />
    </g>
    <g opacity="0.61" clip-path="url(#clip16)">
        <path d="M18.2 285.5C14.5 283.9 11.2 282.1 9.10001 278.5C7.90001 276.4 7.10001 273.9 7.20001 271.5C7.20001 271.3 7.20001 271.2 7.20001 271C7.80001 271.2 8.40001 271.4 9.10001 271.5C12.1 271.9 16.4 270.9 17 267.3C17.5 264.2 14.6 262.4 11.8 262.7C9.00001 263 6.80001 265 5.60001 267.5C4.10001 266.4 3.00001 264.9 2.40001 263.1C0.900008 258.3 3.80001 251.7 9.30001 251.1C10 251 10 250.1 9.30001 250.1C1.70001 249.3 -1.79999 259.5 0.900008 265.3C1.80001 267.2 3.20001 268.7 4.90001 269.8C3.40001 277.4 9.80001 286.3 17.3 287.7C18.5 288 19.6 286.1 18.2 285.5ZM12.4 265.2C15.2 265.4 13.1 269 11 269.1C10 269.2 8.90001 269 7.90001 268.6C8.70001 266.8 10.2 265 12.4 265.2Z" fill="black" />
    </g>
    <defs>
        <clipPath id="clip0">
            <rect width="127" height="111" fill="white" transform="translate(884 326)" />
        </clipPath>
        <clipPath id="clip1">
            <rect width="83.7" height="60.1" fill="white" transform="translate(799 458)" />
        </clipPath>
        <clipPath id="clip2">
            <rect width="83.7" height="60.1" fill="white" transform="translate(23.4472 469.276) rotate(-85.2639)" />
        </clipPath>
        <clipPath id="clip3">
            <rect width="83.7" height="60.1" fill="white" transform="translate(351.601 221.345) rotate(96.0604)" />
        </clipPath>
        <clipPath id="clip4">
            <rect width="90" height="167" fill="white" transform="translate(129 555.748) rotate(-39.9146)" />
        </clipPath>
        <clipPath id="clip5">
            <rect width="94" height="90" fill="white" transform="translate(887 125)" />
        </clipPath>
        <clipPath id="clip6">
            <rect width="38" height="38" fill="white" transform="translate(1045 66)" />
        </clipPath>
        <clipPath id="clip7">
            <rect width="75.2" height="38.9" fill="white" transform="translate(701 362.997) rotate(-44.8093)" />
        </clipPath>
        <clipPath id="clip8">
            <rect width="75.2" height="38.9" fill="white" transform="translate(198 118.997) rotate(-44.8093)" />
        </clipPath>
        <clipPath id="clip9">
            <rect width="75.2" height="38.9" fill="white" transform="translate(693 53.647) rotate(-45.5115)" />
        </clipPath>
        <clipPath id="clip10">
            <rect width="111" height="81" fill="white" transform="translate(1083 230)" />
        </clipPath>
        <clipPath id="clip11">
            <rect width="79" height="68" fill="white" transform="translate(919 538)" />
        </clipPath>
        <clipPath id="clip12">
            <rect width="76" height="120" fill="white" transform="translate(65 77)" />
        </clipPath>
        <clipPath id="clip13">
            <rect width="68" height="92" fill="white" transform="translate(130 315)" />
        </clipPath>
        <clipPath id="clip14">
            <rect width="38" height="38" fill="white" transform="translate(856 252)" />
        </clipPath>
        <clipPath id="clip15">
            <rect width="38" height="38" fill="white" transform="translate(286 430)" />
        </clipPath>
        <clipPath id="clip16">
            <rect width="18.8" height="37.8" fill="white" transform="translate(0 250)" />
        </clipPath>
    </defs>
</svg>