<svg width="62" height="64" viewBox="0 0 62 64" fill="none" xmlns="http://www.w3.org/2000/svg">
<path d="M51.2032 29.7724C51.2032 42.4612 41.9074 52.6601 30.543 52.6601C19.1785 52.6601 9.88273 42.4612 9.88273 29.7724C9.88273 17.0837 19.1785 6.88477 30.543 6.88477C41.9074 6.88477 51.2032 17.0837 51.2032 29.7724Z" stroke="#3C244B"/>
<path d="M55.658 32.0001C55.658 43.4188 46.566 52.6603 35.369 52.6603C24.172 52.6603 15.08 43.4188 15.08 32.0001C15.08 20.5814 24.172 11.3398 35.369 11.3398C46.566 11.3398 55.658 20.5814 55.658 32.0001Z" stroke="#F5C12D"/>
<path d="M42.3171 53.3399C32.3902 58.817 18.9942 53.8355 12.4535 41.9808C5.91271 30.126 8.84197 16.1372 18.7688 10.6601C28.6957 5.183 42.0917 10.1645 48.6325 22.0192C55.1733 33.874 52.244 47.8628 42.3171 53.3399Z" stroke="#EF3E62"/>
</svg>
