<svg width="39" height="44" viewBox="0 0 39 44" fill="none" xmlns="http://www.w3.org/2000/svg">
<path d="M7.632 43.408C7.632 42.9973 7.48267 42.792 7.184 42.792C6.92267 42.792 6.58667 42.9227 6.176 43.184L5.952 42.736C5.35467 41.8027 4.79467 40.72 4.272 39.488C3.78667 38.2187 3.33867 37.024 2.928 35.904C2.51733 34.7467 2.2 33.8693 1.976 33.272C1.82667 32.7867 1.65867 32.0587 1.472 31.088C1.28533 30.1173 1.08 28.8853 0.856 27.392C1.34133 27.6533 1.67733 27.784 1.864 27.784C2.2 27.784 2.66667 27.56 3.264 27.112C3.86133 26.664 4.40267 26.44 4.888 26.44C5.18667 26.7013 5.448 26.9627 5.672 27.224C5.93333 27.4853 6.10133 27.952 6.176 28.624C6.47467 30.7893 6.848 32.5067 7.296 33.776C7.78133 35.008 8.21067 35.624 8.584 35.624C8.88267 35.624 9.27467 35.3627 9.76 34.84C10.2453 34.28 10.992 33.0853 12 31.256C12.2987 30.2107 12.5973 29.4267 12.896 28.904C13.232 28.3813 13.5493 27.9147 13.848 27.504C14.184 27.056 14.52 26.44 14.856 25.656C14.856 26.104 14.9307 26.328 15.08 26.328C15.2667 26.328 15.472 26.0667 15.696 25.544C15.7707 25.2827 16.0693 24.6853 16.592 23.752C17.152 22.8187 17.7867 21.7173 18.496 20.448C19.168 19.216 20.008 17.872 21.016 16.416C22.0613 14.9227 23.1253 13.4667 24.208 12.048C25.328 10.6293 26.3173 9.39733 27.176 8.352C28.0347 7.26933 28.632 6.54133 28.968 6.168C29.4907 5.57067 30.088 4.97333 30.76 4.376C31.4693 3.74133 32.1413 3.18133 32.776 2.696C33.4107 2.17333 33.896 1.81867 34.232 1.632C34.12 2.11733 34.0827 2.45333 34.12 2.64C34.1947 2.78933 34.3067 2.864 34.456 2.864C34.904 2.67733 35.3707 2.32266 35.856 1.8C36.3787 1.27733 36.8267 0.922664 37.2 0.735998L36.752 1.744C37.3493 1.33333 37.7787 1.128 38.04 1.128C38.1893 1.128 38.3013 1.22133 38.376 1.408C38.4507 1.55733 38.488 1.70667 38.488 1.856C38.488 2.34133 38.1707 2.95733 37.536 3.704C37.2 4.07733 36.696 4.712 36.024 5.608C35.352 6.46667 34.4187 7.512 33.224 8.744L29.92 12.216C29.5093 12.7387 28.856 13.616 27.96 14.848C27.1013 16.0427 26.112 17.424 24.992 18.992C23.9093 20.5227 22.8267 22.072 21.744 23.64C20.6987 25.1707 19.7653 26.552 18.944 27.784C18.1227 29.016 17.544 29.912 17.208 30.472L13.736 36.352C12.9893 37.6213 12.3733 38.6667 11.888 39.488C11.44 40.272 11.0667 40.8133 10.768 41.112C10.5067 41.4107 10.2267 41.7093 9.928 42.008C9.62933 42.3067 9.29333 42.6053 8.92 42.904L8.752 42.792L8.416 42.624L8.248 42.68L7.632 43.408Z" fill="black"/>
</svg>
